<?xml version="1.0" encoding="utf-8"?>
<!-- Generator: Adobe Illustrator 16.0.0, SVG Export Plug-In . SVG Version: 6.00 Build 0)  -->
<!DOCTYPE svg PUBLIC "-//W3C//DTD SVG 1.1//EN" "http://www.w3.org/Graphics/SVG/1.1/DTD/svg11.dtd">
<svg version="1.1" xmlns="http://www.w3.org/2000/svg" xmlns:xlink="http://www.w3.org/1999/xlink" x="0px" y="0px" width="612px"
	 height="612px" viewBox="0 0 612 612" enable-background="new 0 0 612 612" xml:space="preserve">
<g id="Capa_1" display="none">
</g>
<g id="Vision">
</g>
<g id="Capa_2" display="none">
</g>
<g id="Mision">
</g>
<g id="Capa_3" display="none">
</g>
<g id="Capa_7">
</g>
<g id="Capa_4" display="none">
</g>
<g id="Objetivos">
</g>
<g id="Capa_9">
	<g>
		<circle fill="#FFEC00" cx="99.17" cy="365.186" r="27.956"/>
		<circle fill="#FFEC00" cx="99.17" cy="191.086" r="27.956"/>
		<circle fill="#FFEC00" cx="201.522" cy="50.703" r="27.956"/>
		<circle fill="#FFEC00" cx="376.052" cy="40.255" r="27.956"/>
		<circle fill="#FFEC00" cx="512.83" cy="141.001" r="27.956"/>
		<g>
			<path fill="#FFEC00" d="M470.834,185.441c40,86.299,2.465,188.683-83.835,228.683c-86.3,39.998-188.683,2.463-228.684-83.836
				c-39.997-86.298-2.462-188.684,83.835-228.682C328.453,61.607,430.836,99.142,470.834,185.441z"/>
			<circle fill="#F7F06B" cx="315.406" cy="253.635" r="153.24"/>
			<circle fill="#F9E77D" cx="214.276" cy="211.027" r="41.137"/>
			<path fill="#8E8E8E" d="M497.234,429.234c3.348,7.219,1.249,15.301-4.689,18.052l-148.458,68.812
				c-5.938,2.749-13.462-0.873-16.806-8.092l0,0c-3.348-7.219-1.249-15.3,4.689-18.052l148.458-68.809
				C486.367,418.394,493.89,422.016,497.234,429.234L497.234,429.234z"/>
			<path fill="#444444" d="M511.237,459.439c3.345,7.222,1.246,15.303-4.689,18.055l-148.461,68.809
				c-5.936,2.752-13.459-0.87-16.806-8.091l0,0c-3.346-7.217-1.246-15.299,4.689-18.05l148.461-68.809
				C500.367,448.602,507.893,452.224,511.237,459.439L511.237,459.439z"/>
			<path fill="#8E8E8E" d="M501.82,499.752c3.346,7.219,2.557,14.694-1.765,16.696l-108.05,50.082
				c-4.319,2-10.534-2.228-13.882-9.448l0,0c-3.345-7.217-2.554-14.692,1.765-16.695l108.051-50.079
				C492.261,488.305,498.476,492.532,501.82,499.752L501.82,499.752z"/>
			<path fill="#0C0C0C" d="M497.61,545.116c4.804,10.361,6.368,19.84,3.501,21.17l-71.758,33.258
				c-2.871,1.33-9.088-5.989-13.892-16.354l0,0c-4.802-10.358-6.368-19.834-3.498-21.164l71.758-33.259
				C486.59,527.438,492.81,534.758,497.61,545.116L497.61,545.116z"/>
			<path fill="#FFEC00" d="M472.807,406.218c1.18,2.542-1.414,6.248-5.792,8.277L335.567,475.42
				c-4.381,2.027-8.883,1.612-10.062-0.93l-22.334-48.19c-1.18-2.541,1.414-6.25,5.792-8.277l131.447-60.925
				c4.378-2.029,8.883-1.611,10.062,0.93L472.807,406.218z"/>
			<path fill="#F7F06B" d="M451.002,390.104c3.059,6.599,2.554,13.327-1.122,15.031l-110.382,51.159
				c-3.676,1.706-9.135-2.262-12.192-8.857l-57.938-125.007c-3.059-6.597-2.557-13.325,1.119-15.029l110.385-51.161
				c3.676-1.704,9.135,2.262,12.192,8.858L451.002,390.104z"/>
			<circle fill="#FFF9CC" cx="191.083" cy="204.028" r="30.167"/>
		</g>
	</g>
</g>
</svg>
