<?xml version="1.0" encoding="utf-8"?>
<!-- Generator: Adobe Illustrator 16.0.0, SVG Export Plug-In . SVG Version: 6.00 Build 0)  -->
<!DOCTYPE svg PUBLIC "-//W3C//DTD SVG 1.1//EN" "http://www.w3.org/Graphics/SVG/1.1/DTD/svg11.dtd">
<svg version="1.1" xmlns="http://www.w3.org/2000/svg" xmlns:xlink="http://www.w3.org/1999/xlink" x="0px" y="0px" width="612px"
	 height="612px" viewBox="0 0 612 612" enable-background="new 0 0 612 612" xml:space="preserve">
<g id="Capa_1" display="none">
</g>
<g id="Vision">
</g>
<g id="Capa_2" display="none">
</g>
<g id="Mision">
</g>
<g id="Capa_3" display="none">
</g>
<g id="Capa_7">
</g>
<g id="Capa_4" display="none">
</g>
<g id="Objetivos">
</g>
<g id="Capa_9">
	<g>
		<circle fill="#FFEC00" cx="142.598" cy="352.759" r="22.086"/>
		<circle fill="#FFEC00" cx="142.598" cy="215.214" r="22.086"/>
		<circle fill="#FFEC00" cx="223.459" cy="104.307" r="22.086"/>
		<circle fill="#FFEC00" cx="361.344" cy="96.052" r="22.086"/>
		<circle fill="#FFEC00" cx="469.402" cy="175.645" r="22.086"/>
		<g>
			<circle fill="#FFEC00" cx="312.774" cy="267.971" r="136.065"/>
			<circle fill="#F7F06B" cx="313.431" cy="264.63" r="121.065"/>
			<circle fill="#F9E77D" cx="233.535" cy="230.968" r="32.499"/>
			<path fill="#8E8E8E" d="M457.082,403.359c2.645,5.703,0.986,12.088-3.705,14.262L336.09,471.984
				c-4.691,2.172-10.635-0.689-13.277-6.393l0,0c-2.645-5.703-0.986-12.088,3.705-14.262l117.287-54.361
				C448.496,394.795,454.439,397.656,457.082,403.359L457.082,403.359z"/>
			<path fill="#444444" d="M468.145,427.223c2.643,5.705,0.984,12.09-3.705,14.264L347.15,495.848
				c-4.689,2.174-10.633-0.688-13.277-6.393l0,0c-2.643-5.701-0.984-12.086,3.705-14.26l117.289-54.361
				C459.557,418.66,465.502,421.521,468.145,427.223L468.145,427.223z"/>
			<path fill="#8E8E8E" d="M460.705,459.07c2.643,5.703,2.02,11.609-1.395,13.191l-85.363,39.566
				c-3.412,1.58-8.322-1.76-10.967-7.465l0,0c-2.643-5.701-2.018-11.607,1.395-13.189l85.363-39.564
				C453.152,450.027,458.063,453.367,460.705,459.07L460.705,459.07z"/>
			<path fill="#0C0C0C" d="M457.379,494.91c3.795,8.186,5.031,15.674,2.766,16.725l-56.691,26.275
				c-2.268,1.051-7.18-4.732-10.975-12.92l0,0c-3.793-8.184-5.031-15.67-2.764-16.721l56.691-26.275
				C448.672,480.943,453.586,486.727,457.379,494.91L457.379,494.91z"/>
			<path fill="#FFEC00" d="M437.783,385.176c0.932,2.008-1.117,4.936-4.576,6.539l-103.848,48.133
				c-3.461,1.602-7.018,1.273-7.949-0.734l-17.645-38.072c-0.932-2.008,1.117-4.938,4.576-6.539l103.848-48.133
				c3.459-1.604,7.018-1.273,7.949,0.734L437.783,385.176z"/>
			<path fill="#F7F06B" d="M420.557,372.445c2.416,5.213,2.018,10.529-0.887,11.875l-87.205,40.418
				c-2.904,1.348-7.217-1.787-9.633-6.998l-45.773-98.76c-2.416-5.211-2.02-10.527,0.885-11.873l87.207-40.419
				c2.904-1.346,7.217,1.787,9.633,6.998L420.557,372.445z"/>
			<circle fill="#FFF9CC" cx="215.211" cy="225.438" r="23.833"/>
		</g>
	</g>
</g>
</svg>
