<?xml version="1.0" encoding="utf-8"?>
<!-- Generator: Adobe Illustrator 16.0.0, SVG Export Plug-In . SVG Version: 6.00 Build 0)  -->
<!DOCTYPE svg PUBLIC "-//W3C//DTD SVG 1.1//EN" "http://www.w3.org/Graphics/SVG/1.1/DTD/svg11.dtd">
<svg version="1.1" xmlns="http://www.w3.org/2000/svg" xmlns:xlink="http://www.w3.org/1999/xlink" x="0px" y="0px" width="200px"
	 height="200px" viewBox="745 175 200 200" enable-background="new 745 175 200 200" xml:space="preserve">
<g id="Capa_1">
</g>
<g id="Capa_2">
	<circle fill="#FFFFFF" stroke="#D1D1D1" stroke-miterlimit="10" cx="845" cy="275" r="82.5"/>
	<g>
		<g id="Capa_3_1_">
			<g>
				<path fill="#DDDDDD" d="M820.188,300.67c-5.028-7.971-9.121-16.802-12.165-26.246c-5.106-15.836-5.521-28.149-5.535-28.639
					c-5.077-3.521-9.775-9.099-12.823-13.16c-3.018-4.02-5.057-7.383-5.404-7.966c0,0.746,0.035,5.526,0.828,12.836
					c0.793,7.324,2.529,18.754,6.299,31.617c6.653,22.706,21.055,54.315,51.869,75.982l0.017-18.745
					C834.236,319.271,826.47,310.631,820.188,300.67z"/>
				<path fill="#FDF1F7" d="M844.956,239.954c-5.736,4.089-13.179,6.163-22.122,6.163c-9.762,0-17.995-2.55-18.634-2.753
					c0.025,0.8,0.497,12.987,5.531,28.598c4.781,14.83,14.773,35.868,35.225,51.892c20.45-16.024,30.443-37.064,35.225-51.894
					c5.034-15.611,5.506-27.796,5.531-28.597c-0.639,0.204-8.874,2.753-18.634,2.753
					C858.135,246.117,850.693,244.043,844.956,239.954z"/>
				<path fill="#DDDDDD" d="M804.154,244.815c0.15,0.048,8.586,2.762,18.651,2.761c8.938,0,16.376-2.074,22.105-6.164l0.006-0.005
					h0.02l0.008,0.005c5.729,4.09,13.166,6.164,22.104,6.164c10.064,0,18.501-2.713,18.651-2.761
					c5.072-3.517,9.771-9.093,12.818-13.153c2.973-3.962,4.996-7.286,5.385-7.935c-2.639,2.674-6.734,4.954-11.858,6.597
					c-5.36,1.718-11.526,2.626-17.832,2.626c-6.221,0-12.274-0.858-17.506-2.484c-5.08-1.578-9.181-3.806-11.861-6.444
					c-2.68,2.638-6.78,4.867-11.861,6.444c-5.232,1.626-11.285,2.484-17.506,2.484c-6.303,0-12.44-0.902-17.75-2.609
					c-5.04-1.621-9.087-3.877-11.729-6.532c0.49,0.813,2.472,4.038,5.335,7.853C794.384,235.722,799.081,241.298,804.154,244.815z"
					/>
				<path fill="#DDDDDD" d="M887.599,245.785c-0.014,0.489-0.428,12.803-5.534,28.639c-3.045,9.444-7.137,18.275-12.166,26.246
					c-6.281,9.961-14.049,18.601-23.086,25.681l-0.017,18.735c30.842-21.67,45.248-53.293,51.904-76.008
					c3.769-12.863,5.505-24.293,6.299-31.617c0.78-7.2,0.826-11.947,0.827-12.801c-0.348,0.582-2.386,3.946-5.404,7.966
					C897.374,236.686,892.676,242.264,887.599,245.785z"/>
			</g>
			<g>
				<path fill="#0F70B7" d="M843.055,340.396c-28.983-21.374-42.711-51.714-49.142-73.656c-3.74-12.765-5.464-24.108-6.251-31.375
					c-0.331-3.054-0.529-5.65-0.646-7.691c0.777,1.139,1.694,2.435,2.725,3.807c2.996,3.991,7.566,9.428,12.575,13.064
					c0.154,2.895,1.025,14.23,5.569,28.325c3.081,9.554,7.224,18.492,12.313,26.562c6.243,9.898,13.935,18.513,22.87,25.611
					L843.055,340.396z"/>
				<path fill="#0F67B7" d="M788.778,232.519c2.948,3.906,7.332,9.096,12.186,12.759c0.246,3.768,1.298,14.69,5.595,28.02
					c3.118,9.666,7.31,18.709,12.462,26.878c6.203,9.837,13.821,18.423,22.654,25.538l-0.01,11.887
					c-27.163-21.034-40.213-50.085-46.414-71.251c-3.712-12.667-5.423-23.923-6.204-31.134
					C788.944,234.273,788.855,233.373,788.778,232.519 M785.449,222.678c0,0.747,0.036,5.527,0.827,12.837
					c0.794,7.324,2.531,18.754,6.3,31.617c6.653,22.707,21.055,54.315,51.868,75.982l0.018-18.744
					c-9.036-7.08-16.803-15.72-23.085-25.68c-5.027-7.972-9.121-16.803-12.166-26.247c-5.105-15.835-5.521-28.149-5.534-28.639
					c-5.075-3.521-9.774-9.099-12.823-13.159C787.836,226.625,785.797,223.26,785.449,222.678L785.449,222.678z"/>
			</g>
			<g>
				
					<linearGradient id="SVGID_1_" gradientUnits="userSpaceOnUse" x1="844.9805" y1="327.0713" x2="844.9805" y2="306.7988" gradientTransform="matrix(1 0 0 -1 0 551)">
					<stop  offset="0.6667" style="stop-color:#FCDA17"/>
					<stop  offset="0.8183" style="stop-color:#FCD819"/>
					<stop  offset="0.8944" style="stop-color:#FBD01E"/>
					<stop  offset="0.9535" style="stop-color:#FAC327"/>
					<stop  offset="1" style="stop-color:#F9B233"/>
				</linearGradient>
				<path fill="url(#SVGID_1_)" d="M867.078,244.201c-8.643,0-15.808-1.987-21.295-5.905l-0.365-0.259l-0.453-0.005h-0.452
					l-0.385,0.266c-5.486,3.917-12.65,5.904-21.294,5.904c-8.992,0-16.733-2.238-18.031-2.634
					c-4.854-3.417-9.373-8.792-12.323-12.723c-0.421-0.56-0.821-1.105-1.2-1.632c1.819,0.934,3.848,1.765,6.052,2.474
					c5.446,1.751,11.731,2.677,18.177,2.677c6.358,0,12.556-0.881,17.919-2.547c4.716-1.465,8.641-3.487,11.448-5.887
					c2.807,2.399,6.732,4.422,11.447,5.887c5.364,1.667,11.561,2.547,17.92,2.547c6.448,0,12.761-0.931,18.257-2.694
					c2.259-0.724,4.33-1.572,6.182-2.524c-0.394,0.548-0.81,1.117-1.247,1.699c-2.951,3.932-7.471,9.307-12.324,12.723
					C883.808,241.963,876.055,244.201,867.078,244.201z"/>
				<path fill="#FCCE17" d="M844.875,225.72c2.861,2.201,6.622,4.055,11.034,5.425c5.496,1.708,11.835,2.61,18.333,2.61
					c6.591,0,13.051-0.954,18.682-2.76c0.492-0.157,0.977-0.321,1.451-0.49c-2.712,3.357-6.206,7.159-9.887,9.793
					c-1.719,0.508-9.021,2.509-17.412,2.509c-8.346,0-15.238-1.899-20.484-5.646l-0.015-0.01l-0.008-0.005l-0.721-0.509h-0.885
					h-0.018l-0.913,0.006l-0.723,0.525c-5.245,3.741-12.135,5.638-20.479,5.639c-8.393,0-15.692-2.001-17.408-2.509
					c-3.658-2.618-7.132-6.39-9.835-9.731c0.431,0.153,0.871,0.302,1.315,0.445c5.584,1.794,12.016,2.743,18.604,2.743
					c6.497,0,12.836-0.902,18.332-2.61C838.251,229.775,842.013,227.921,844.875,225.72 M903.934,221.745
					c-2.641,2.675-6.734,4.954-11.86,6.598c-5.359,1.718-11.526,2.626-17.831,2.626c-6.221,0-12.273-0.859-17.506-2.484
					c-5.081-1.578-9.182-3.807-11.861-6.445c-2.68,2.638-6.781,4.867-11.861,6.445c-5.232,1.625-11.285,2.484-17.506,2.484
					c-6.303,0-12.44-0.902-17.751-2.609c-5.04-1.621-9.086-3.877-11.728-6.531c0.489,0.813,2.472,4.037,5.336,7.853
					c3.047,4.059,7.745,9.636,12.818,13.152c0.149,0.049,8.585,2.761,18.648,2.761c0.001,0,0,0,0.002,0
					c8.938,0,16.376-2.074,22.105-6.164l0.007-0.005h0.018l0.009,0.005c5.729,4.09,13.165,6.164,22.104,6.164
					c0.001,0,0.001,0,0.002,0c10.063,0,18.5-2.712,18.65-2.761c5.072-3.517,9.771-9.093,12.818-13.153
					C901.521,225.719,903.543,222.395,903.934,221.745L903.934,221.745z"/>
			</g>
			<g>
				<path fill="#E30712" d="M846.842,325.044c8.936-7.099,16.628-15.714,22.872-25.612c5.089-8.069,9.231-17.007,12.313-26.562
					c4.541-14.086,5.414-25.428,5.569-28.325c5.008-3.636,9.579-9.073,12.575-13.064c1.028-1.369,1.944-2.664,2.722-3.802
					c-0.118,2.036-0.316,4.621-0.644,7.651c-0.788,7.268-2.512,18.61-6.252,31.375c-6.433,21.954-20.164,52.303-49.17,73.68
					L846.842,325.044z"/>
				<path fill="#D60712" d="M901.131,232.522c-0.077,0.841-0.165,1.728-0.267,2.656c-0.781,7.212-2.492,18.467-6.203,31.133
					c-6.205,21.177-19.26,50.236-46.438,71.272l0.01-11.869c8.835-7.115,16.453-15.702,22.658-25.54
					c5.152-8.168,9.344-17.212,12.461-26.878c4.295-13.323,5.348-24.251,5.595-28.02C893.8,241.616,898.183,236.428,901.131,232.522
					 M904.462,222.678c-0.348,0.583-2.387,3.947-5.403,7.966c-3.049,4.061-7.747,9.638-12.823,13.159
					c-0.015,0.489-0.429,12.804-5.535,28.639c-3.045,9.444-7.138,18.275-12.165,26.247c-6.283,9.96-14.049,18.6-23.086,25.68
					l-0.017,18.735c30.841-21.672,45.247-53.294,51.902-76.008c3.77-12.863,5.506-24.293,6.3-31.617
					C904.415,228.279,904.46,223.532,904.462,222.678L904.462,222.678z"/>
			</g>
			<path opacity="0.1" fill="#FFFFFF" enable-background="new    " d="M807.829,240.281c5.782,1.677,7.808,1.678,16.96,1.677
				c8.129,0,14.891-1.26,20.1-3.744l0.007-0.003h0.017l0.007,0.003c5.21,2.485,11.973,3.744,20.101,3.744
				c9.15,0,13.447-0.493,16.959-1.677c4.816-1.625,8.884-5.524,11.655-7.99c2.704-2.407,4.543-4.426,4.897-4.82
				c-2.399,1.624-6.124,3.009-10.783,4.007c-4.874,1.044-10.48,1.596-16.215,1.596c-5.657,0-11.16-0.521-15.918-1.509
				c-4.619-0.959-8.349-3.241-10.785-4.844c-2.437,1.603-6.165,3.885-10.785,4.844c-4.758,0.988-10.262,1.509-15.919,1.509
				c-5.729,0-11.311-0.548-16.14-1.585c-4.583-0.984-8.263-2.355-10.665-3.967c0.446,0.494,2.247,2.453,4.853,4.77
				C798.945,234.758,802.947,238.865,807.829,240.281z"/>
			<path opacity="0.05" fill="#FFFFFF" enable-background="new    " d="M815.851,293.839c-3.791-6.755-6.877-14.236-9.173-22.238
				c-3.851-13.417-4.741-25.851-4.753-26.265c-3.827-2.983-7.361-6.839-9.089-9.148c-2.452-3.28-3.812-6.255-4.074-6.749
				c0.001,0.632,0.026,4.682,0.624,10.875c0.599,6.206,2.539,16.103,5.381,27.001c5.016,19.237,21.201,51.234,48.409,73.485v-14.512
				C835.824,322.109,820.587,302.277,815.851,293.839z"/>
			<path opacity="0.13" fill="#FFFFFF" enable-background="new    " d="M873.905,294.303c3.791-6.755,6.877-14.236,9.172-22.238
				c3.851-13.417,4.742-25.851,4.753-26.265c3.826-2.983,7.361-6.839,9.089-9.148c2.453-3.28,3.812-6.256,4.075-6.749
				c-0.001,0.632-0.026,4.682-0.624,10.875c-0.599,6.206-2.539,16.103-5.382,27.001c-5.016,19.239-21.201,51.234-48.408,73.485
				v-14.511C853.932,322.574,869.169,302.742,873.905,294.303z"/>
		</g>
		<g id="Capa_4_1_">
			<g>
				<path fill="none" stroke="#1D1D1B" stroke-width="0.4644" stroke-miterlimit="10" d="M823.498,278.692
					c0,0,3.019-4.295,15.208-3.135"/>
				<path fill="none" stroke="#1D1D1B" stroke-width="0.4644" stroke-miterlimit="10" d="M825.243,281.783
					c0,0,3.019-4.295,15.208-3.135"/>
				<path fill="none" stroke="#1D1D1B" stroke-width="0.4644" stroke-miterlimit="10" d="M826.136,284.771
					c0,0,2.413-4.148,14.602-2.987"/>
				<path fill="none" stroke="#1D1D1B" stroke-width="0.4644" stroke-miterlimit="10" d="M827.34,288.006
					c0,0,4.327-4.832,14.179-2.929"/>
				<path fill="none" stroke="#1D1D1B" stroke-width="0.4644" stroke-miterlimit="10" d="M828.248,291.242
					c0,0,2.391-4.481,14.18-3.304"/>
				<path fill="none" stroke="#1D1D1B" stroke-width="0.4644" stroke-miterlimit="10" d="M829.696,294.745
					c0,0,1.859-4.778,13.712-2.979"/>
				<path fill="none" stroke="#1D1D1B" stroke-width="0.4644" stroke-miterlimit="10" d="M831.076,297.843
					c0,0,0.542-2.928,12.332-1.751"/>
			</g>
			<g>
				<polygon fill="none" stroke="#636363" stroke-width="0.4644" stroke-miterlimit="10" points="844.91,315.725 838.067,276.835 
					853.16,276.835 				"/>
				<path fill="none" stroke="#808080" stroke-width="0.4644" stroke-miterlimit="10" d="M856.353,270.323
					c0.606,0,1.999-1.324,1.999-2.194c0-0.871-0.6-0.968-0.6-0.968h-24.174c0,0-0.599,0.097-0.599,0.968
					c0,0.871,1.393,2.194,2,2.194c0,5.097,4.784,9.229,10.686,9.229C851.567,279.552,856.353,275.42,856.353,270.323z"/>
			</g>
			<path fill="none" stroke="#000000" stroke-width="0.4644" stroke-miterlimit="10" d="M818.511,278.144l-0.614,0.374
				l10.652,29.894c3.714-0.696,7.101-1.103,9.169-0.986c1.85,0.104,6.988,1.219,6.988,1.219l0.673-28.5l-10.242-10.419
				c-12.422-0.377-16.369,5.137-16.369,5.137l10.622,30.009c0,0,6.502-1.974,15.317,0.639"/>
			<path fill="none" stroke="#000000" stroke-width="0.4644" stroke-miterlimit="10" d="M819.116,275.847
				c0,0-0.513-0.009-0.648,0.582l0.329,1.005c0,0-0.338,0.353-0.381,0.438l10.384,29.756c0,0,4.962-0.982,8.021-1.017
				c2.669-0.028,7.545,1.451,7.545,1.451"/>
			<path fill="none" stroke="#000000" stroke-width="0.4644" stroke-miterlimit="10" d="M818.599,276.833l10.473,29.054
				c0,0,4.846-0.813,7.865-0.755c3.019,0.058,7.574,1.566,7.574,1.566"/>
			<g>
				<path fill="none" stroke="#1D1D1B" stroke-width="0.4644" stroke-miterlimit="10" d="M866.785,278.692
					c0,0-3.019-4.295-15.208-3.135"/>
				<path fill="none" stroke="#1D1D1B" stroke-width="0.4644" stroke-miterlimit="10" d="M865.04,281.783
					c0,0-3.019-4.295-15.207-3.135"/>
				<path fill="none" stroke="#1D1D1B" stroke-width="0.4644" stroke-miterlimit="10" d="M864.148,284.771
					c0,0-2.413-4.148-14.602-2.987"/>
				<path fill="none" stroke="#1D1D1B" stroke-width="0.4644" stroke-miterlimit="10" d="M862.944,288.006
					c0,0-4.327-4.832-14.179-2.929"/>
				<path fill="none" stroke="#1D1D1B" stroke-width="0.4644" stroke-miterlimit="10" d="M862.036,291.242
					c0,0-2.39-4.481-14.18-3.304"/>
				<path fill="none" stroke="#1D1D1B" stroke-width="0.4644" stroke-miterlimit="10" d="M860.588,294.745
					c0,0-1.859-4.778-13.712-2.979"/>
				<path fill="none" stroke="#1D1D1B" stroke-width="0.4644" stroke-miterlimit="10" d="M859.208,297.843
					c0,0-0.542-2.928-12.332-1.751"/>
			</g>
			<path fill="none" stroke="#000000" stroke-width="0.4644" stroke-miterlimit="10" d="M871.771,278.144l0.615,0.374
				l-10.651,29.894c-3.715-0.696-7.101-1.103-9.169-0.986c-1.85,0.104-6.99,1.219-6.99,1.219l-0.671-28.5l10.242-10.419
				c12.421-0.377,16.368,5.137,16.368,5.137l-10.622,30.009c0,0-6.501-1.974-15.317,0.639"/>
			<path fill="none" stroke="#000000" stroke-width="0.4644" stroke-miterlimit="10" d="M871.167,275.847
				c0,0,0.515-0.009,0.649,0.582l-0.328,1.005c0,0,0.337,0.353,0.38,0.438l-10.385,29.756c0,0-4.96-0.982-8.019-1.017
				c-2.671-0.028-7.546,1.451-7.546,1.451"/>
			<path fill="none" stroke="#000000" stroke-width="0.4644" stroke-miterlimit="10" d="M871.685,276.833l-10.472,29.054
				c0,0-4.846-0.813-7.865-0.755c-3.019,0.058-7.575,1.566-7.575,1.566"/>
			<g>
				<g>
					<path fill="#F37700" d="M834.181,267.49c-0.449-0.649-2.361-3.8-1.844-9.807c0.527,0.2,1.482,0.647,2.164,1.46l1.53,1.817
						l-0.942-2.18c-0.44-1.015-0.915-2.706-0.78-5.114c0.736,0.36,2.233,1.28,2.911,3.037l0.654-0.243
						c-0.014-0.038-1.271-3.664-0.169-7.98c0.761,0.875,2.36,2.617,3.416,3.077l0.408,0.178l0.074-0.439
						c0.009-0.053,0.881-5.108,2.907-7.759c0.975,0.774,4.35,3.697,4.587,7.202l0.696-0.031c-0.001-0.023-0.038-1.91-0.023-3.184
						c0.866,1.001,2.402,3.414,1.825,7.496l-0.027,0.192l0.246,0.205l0.143,0.004c0.264,0,0.618,0,1.36-3.272
						c0.781,1.336,2.245,4.25,1.437,6.15l-0.703,1.653l1.271-1.27c0.032-0.032,0.689-0.704,1.098-2.206
						c1.05,1.398,3.44,5.446,1.208,11.014H834.181z"/>
					<path fill="#EA5B0C" d="M844.577,244.038c1.185,0.991,3.962,3.629,4.172,6.723l1.393-0.061
						c-0.001-0.017-0.021-1.055-0.026-2.106c0.763,1.227,1.567,3.319,1.136,6.375l-0.055,0.385l0.299,0.249
						c0.129,0.106,0.292,0.166,0.462,0.166c0.499,0,0.876-0.207,1.493-2.669c0.788,1.532,1.576,3.672,0.984,5.062l-1.407,3.305
						l2.54-2.54c0.071-0.072,0.56-0.584,0.962-1.659c1.064,1.691,2.618,5.25,0.86,9.873h-23.022
						c-0.532-0.835-2.065-3.729-1.721-8.948c0.469,0.221,1.059,0.575,1.526,1.102c0.375,0.838,0.727,1.269,0.766,1.317l2.352,2.8
						l-1.157-3.469c-0.166-0.498-0.422-0.965-0.763-1.389c-0.379-0.907-0.77-2.334-0.734-4.317c0.732,0.441,1.745,1.257,2.26,2.59
						l1.306-0.485c-0.013-0.035-1.114-3.199-0.311-7.126c0.858,0.946,2.15,2.249,3.092,2.659l0.816,0.355l0.147-0.878
						C841.956,251.303,842.754,246.68,844.577,244.038 M844.453,243.053c-2.264,2.67-3.193,8.184-3.193,8.184
						c-1.335-0.58-3.715-3.482-3.715-3.482c-1.451,4.76,0,8.823,0,8.823c-0.986-2.554-3.549-3.424-3.549-3.424
						c-0.237,2.732,0.284,4.638,0.772,5.767c0.292,0.348,0.543,0.76,0.705,1.245c0,0-0.345-0.408-0.705-1.245
						c-1.077-1.281-2.737-1.704-2.737-1.704c-0.755,7.313,1.974,10.622,1.974,10.622h23.855c3.036-7.24-1.625-12.131-1.625-12.131
						c-0.349,1.915-1.16,2.728-1.16,2.728c1.16-2.728-1.915-7.198-1.915-7.198c-0.765,3.613-1.126,3.836-1.203,3.836
						c-0.012,0-0.017-0.005-0.017-0.005c0.813-5.747-2.496-8.358-2.496-8.358c-0.058,1.044,0,4.004,0,4.004
						C849.153,246.419,844.453,243.053,844.453,243.053L844.453,243.053z"/>
				</g>
				<g>
					<path fill="#E30D2A" d="M836.868,268.742c-0.505-0.436-3.13-3.073-3.423-10.876c0.884,0.52,1.9,1.176,2.095,1.448l0.838,1.175
						l-0.21-1.428c-0.22-1.49-0.5-3.705-0.553-4.875c0.969,0.802,2.123,1.784,2.343,2.051l1.108,1.345l-0.506-1.667
						c-0.014-0.042-1.185-3.969-0.226-6.359c0.856,0.799,2.771,2.474,3.757,2.474h0.38l-0.033-0.377
						c-0.003-0.036-0.261-3.517,2.379-6.592c0.248,0.528,0.749,1.345,1.702,2.097c1.415,1.117,2.012,3.129,1.883,4.092l-0.307,2.305
						l0.969-2.114c0.026-0.056,0.458-1.012,0.542-2.046c0.729,1.165,1.671,3.368,1.044,6.397l-0.159,0.777l0.681-0.408
						c0.119-0.071,0.537-0.414,0.931-1.831c0.127-0.459,0.263-0.809,0.384-1.069c0.215,0.755,0.588,1.877,1.077,2.636
						c1.032,1.597,0.823,3.63-0.484,4.73l-0.98,0.823l1.262-0.213c0.199-0.034,1.807-0.433,2.104-4.516
						c1.165,2.264,3.348,7.668-0.058,11.26L836.868,268.742z"/>
					<path fill="#E62F29" d="M844.758,245.684c0.31,0.521,0.798,1.155,1.547,1.746c1.314,1.038,1.87,2.89,1.753,3.773l-0.614,4.61
						l1.938-4.228c0.046-0.099,0.245-0.551,0.399-1.153c0.553,1.198,1.005,2.989,0.53,5.288l-0.321,1.556l1.361-0.817
						c0.233-0.14,0.686-0.591,1.087-2.036c0.009-0.029,0.017-0.059,0.025-0.088c0.212,0.604,0.485,1.251,0.808,1.75
						c0.938,1.45,0.759,3.288-0.416,4.274l-1.96,1.647l2.525-0.427c0.329-0.056,1.737-0.479,2.251-3.619
						c1.094,2.506,2.263,6.721-0.423,9.677l-18.252,0.751c-0.609-0.583-2.793-3.123-3.173-9.889c0.698,0.43,1.3,0.843,1.434,1.017
						l1.677,2.349l-0.421-2.855c-0.181-1.218-0.39-2.856-0.493-4.033c0.823,0.692,1.524,1.306,1.671,1.482l2.211,2.685l-1.008-3.33
						c-0.012-0.038-0.999-3.352-0.399-5.636c1.067,0.96,2.634,2.201,3.598,2.201h0.76l-0.065-0.757
						C842.784,251.588,842.55,248.548,844.758,245.684 M844.939,244.407c-3.191,3.328-2.848,7.274-2.848,7.274
						c-1.083,0-3.864-2.708-3.864-2.708c-1.391,2.477,0,7.042,0,7.042c-0.383-0.464-2.945-2.554-2.945-2.554
						c-0.155,0.929,0.542,5.65,0.542,5.65c-0.388-0.542-2.745-1.857-2.745-1.857c0.197,9.442,3.673,11.842,3.673,11.842
						l18.807-0.774c4.799-4.866-0.396-12.847-0.396-12.847c-0.029,5.107-1.86,5.417-1.86,5.417c1.383-1.161,1.729-3.366,0.555-5.185
						c-0.758-1.172-1.238-3.328-1.238-3.328s-0.466,0.464-0.852,1.857c-0.387,1.393-0.774,1.625-0.774,1.625
						c1.006-4.876-1.857-7.662-1.857-7.662c0.465,1.238-0.386,3.096-0.386,3.096c0.154-1.161-0.543-3.25-2.014-4.411
						C845.266,245.723,844.939,244.407,844.939,244.407L844.939,244.407z"/>
				</g>
				<path fill="#C6C6C6" d="M845.665,279.451c2.813,0,5.37-0.951,7.269-2.5h-14.536C840.295,278.5,842.854,279.451,845.665,279.451z
					"/>
				<path fill="#F5EFEA" stroke="#EDEDED" stroke-width="0.1741" stroke-miterlimit="10" d="M838.12,276.835l6.801,38.28
					l8.161-38.164c-1.923,1.533-4.603,2.309-7.417,2.309C842.784,279.26,840.059,278.434,838.12,276.835z"/>
				<path fill="#F5EFEA" stroke="#EDEDED" stroke-width="0.1741" stroke-miterlimit="10" d="M856.251,270.323v-0.101h0.102
					c0.55,0,1.899-1.262,1.899-2.094c0-0.769-0.495-0.865-0.518-0.869l-24.156,0.001c-0.003,0.002-0.499,0.099-0.499,0.867
					c0,0.833,1.35,2.094,1.9,2.094h0.1v0.101c0,2.489,1.163,4.748,3.042,6.396h15.089
					C855.089,275.07,856.251,272.812,856.251,270.323z"/>
				<path fill="#878787" stroke="#C6C6C6" stroke-width="0.2322" stroke-miterlimit="10" d="M853.082,276.951
					c0.094-0.077,0.037-0.153,0.128-0.232h-15.089c0.091,0.079-0.093,0.155,0,0.232H853.082z"/>
				<path fill="#575756" stroke="#B2B2B2" stroke-width="0.2322" stroke-miterlimit="10" d="M844.921,315.115l-6.693-38.046
					c-0.095-0.078-0.188-0.157-0.277-0.236l6.948,39.502l8.355-39.39c-0.093,0.082-0.189,0.159-0.286,0.236L844.921,315.115z"/>
				<path fill="#575756" stroke="#B2B2B2" stroke-width="0.2322" stroke-miterlimit="10" d="M857.752,267.061l-24.189,0.001
					c-0.006,0.001-0.685,0.122-0.685,1.067c0,0.859,1.272,2.169,2.001,2.286c0.028,2.494,1.195,4.755,3.071,6.418l-0.021-0.114
					h0.191c-1.88-1.648-3.043-3.907-3.043-6.396v-0.047l0,0c-0.55,0-1.999-1.315-1.999-2.147c0-0.769,0.496-0.865,0.499-0.867
					l24.156-0.001c0.021,0.004,0.518,0.1,0.518,0.869c0,0.833-1.45,2.194-2.001,2.194l0,0l0,0c0,2.489-1.163,4.748-3.042,6.396
					h0.093l-0.029,0.141l-0.02,0.086c1.95-1.67,3.17-3.979,3.198-6.531c0.729-0.117,2-1.427,2-2.286
					C858.452,267.183,857.775,267.063,857.752,267.061z"/>
			</g>
			<g>
				<path fill="#706F6F" d="M845.665,279.652c0,0,0.007,0.536,0.017,1.476c0.002,0.939,0.019,2.282,0.014,3.891
					c-0.002,1.61-0.016,3.488-0.038,5.501c-0.014,1.005-0.029,2.045-0.044,3.101c-0.02,1.057-0.039,2.13-0.058,3.203
					c-0.024,1.072-0.05,2.146-0.074,3.201c-0.029,1.056-0.058,2.096-0.084,3.101c-0.06,2.012-0.125,3.888-0.189,5.497
					c-0.062,1.609-0.133,2.949-0.174,3.888c-0.05,0.938-0.078,1.474-0.078,1.474s-0.007-0.537-0.017-1.477
					c-0.002-0.938-0.02-2.28-0.013-3.891c0.002-1.609,0.014-3.488,0.037-5.499c0.015-1.007,0.029-2.047,0.044-3.103
					c0.019-1.057,0.039-2.129,0.059-3.201c0.023-1.073,0.049-2.146,0.074-3.202c0.029-1.057,0.058-2.095,0.085-3.101
					c0.059-2.011,0.124-3.889,0.189-5.496c0.061-1.61,0.132-2.949,0.173-3.889C845.637,280.188,845.665,279.652,845.665,279.652z"/>
			</g>
			<g>
				<path fill="#706F6F" d="M842.937,279.142c0,0,0.049,0.547,0.133,1.502c0.075,0.957,0.201,2.321,0.317,3.962
					c0.06,0.82,0.124,1.708,0.192,2.647c0.067,0.939,0.144,1.931,0.202,2.956c0.129,2.051,0.265,4.239,0.4,6.427
					c0.115,2.189,0.229,4.378,0.336,6.432c0.109,2.052,0.173,3.969,0.246,5.611c0.073,1.644,0.103,3.013,0.137,3.972
					c0.025,0.96,0.039,1.508,0.039,1.508s-0.049-0.547-0.133-1.502c-0.076-0.956-0.202-2.321-0.318-3.962
					c-0.114-1.641-0.271-3.553-0.396-5.604c-0.127-2.051-0.263-4.239-0.399-6.427c-0.113-2.189-0.228-4.377-0.334-6.43
					c-0.059-1.026-0.096-2.019-0.136-2.96c-0.038-0.941-0.076-1.831-0.11-2.652c-0.071-1.643-0.102-3.014-0.137-3.973
					C842.95,279.69,842.937,279.142,842.937,279.142z"/>
			</g>
			<g>
				<path fill="#706F6F" d="M840.579,279.397c0,0,0.085,0.542,0.234,1.487c0.139,0.948,0.356,2.299,0.583,3.927
					c0.114,0.813,0.239,1.693,0.371,2.626c0.13,0.932,0.272,1.913,0.402,2.933c0.265,2.035,0.549,4.206,0.832,6.377
					c0.262,2.174,0.522,4.349,0.769,6.386c0.247,2.038,0.439,3.945,0.624,5.577c0.183,1.631,0.305,2.995,0.404,3.949
					c0.089,0.954,0.141,1.5,0.141,1.5s-0.086-0.542-0.236-1.488c-0.139-0.948-0.356-2.301-0.583-3.927
					c-0.224-1.628-0.509-3.522-0.772-5.558c-0.266-2.036-0.548-4.207-0.832-6.379c-0.262-2.173-0.523-4.347-0.769-6.386
					c-0.127-1.019-0.23-2.006-0.334-2.94c-0.103-0.935-0.199-1.82-0.289-2.636c-0.183-1.633-0.306-2.995-0.404-3.948
					C840.63,279.941,840.579,279.397,840.579,279.397z"/>
			</g>
			<g>
				<path fill="#706F6F" d="M848.522,279.112c0,0-0.04,0.549-0.107,1.51c-0.078,0.961-0.171,2.335-0.316,3.98
					c-0.071,0.822-0.149,1.714-0.231,2.656c-0.081,0.942-0.164,1.937-0.269,2.964c-0.198,2.054-0.411,4.246-0.624,6.438
					c-0.235,2.188-0.47,4.377-0.69,6.43c-0.219,2.052-0.46,3.965-0.648,5.605s-0.377,3.005-0.495,3.961
					c-0.129,0.956-0.201,1.502-0.201,1.502s0.038-0.55,0.105-1.512c0.078-0.961,0.17-2.335,0.316-3.979
					c0.147-1.645,0.298-3.565,0.499-5.62c0.2-2.056,0.412-4.246,0.625-6.438c0.235-2.189,0.47-4.379,0.691-6.432
					c0.105-1.026,0.227-2.017,0.337-2.956c0.109-0.939,0.215-1.828,0.311-2.647c0.19-1.641,0.379-3.006,0.496-3.962
					C848.448,279.658,848.522,279.112,848.522,279.112z"/>
			</g>
			<g>
				<path fill="#706F6F" d="M850.427,279.397c0,0-0.068,0.542-0.189,1.493c-0.128,0.949-0.295,2.308-0.529,3.933
					c-0.116,0.813-0.241,1.692-0.374,2.624c-0.133,0.931-0.27,1.913-0.428,2.926c-0.312,2.029-0.643,4.192-0.974,6.355
					c-0.353,2.16-0.705,4.32-1.035,6.345c-0.329,2.025-0.675,3.91-0.951,5.527c-0.277,1.618-0.54,2.962-0.709,3.904
					c-0.18,0.94-0.282,1.479-0.282,1.479s0.068-0.543,0.188-1.494c0.131-0.948,0.296-2.307,0.531-3.932
					c0.236-1.625,0.49-3.523,0.802-5.552s0.642-4.191,0.973-6.355c0.354-2.16,0.707-4.319,1.037-6.344
					c0.161-1.014,0.335-1.99,0.496-2.918c0.161-0.926,0.313-1.802,0.454-2.61c0.278-1.617,0.54-2.961,0.709-3.904
					C850.324,279.936,850.427,279.397,850.427,279.397z"/>
			</g>
			
				<line fill="none" stroke="#B2B2B2" stroke-width="0.2322" stroke-miterlimit="10" x1="838.01" y1="276.776" x2="853.218" y2="276.776"/>
			
				<line fill="none" stroke="#B2B2B2" stroke-width="0.2322" stroke-miterlimit="10" x1="834.499" y1="270.275" x2="856.832" y2="270.275"/>
		</g>
		<g id="Capa_5_1_">
			<g>
				<path fill="#FFFFFF" d="M799.505,250.153l0.432,2.113l-2.394,0.49l0.474,2.309l2.393-0.49l0.435,2.122l-6.839,1.4l-0.436-2.123
					l2.768-0.566l-0.473-2.309l-2.767,0.566l-0.432-2.114L799.505,250.153z"/>
				<path fill="#FFFFFF" d="M801.134,257.854l1.443,5.597l-1.443,0.373l-0.904-3.504l-1.074,0.277l0.839,3.25l-1.378,0.355
					l-0.84-3.251l-1.332,0.344l0.931,3.606l-1.531,0.394l-1.471-5.698L801.134,257.854z"/>
				<path fill="#FFFFFF" d="M796.128,266.302l6.681-2.024l1.041,3.441c0.194,0.637,0.286,1.142,0.279,1.512
					c-0.007,0.37-0.127,0.703-0.361,1c-0.233,0.296-0.563,0.509-0.988,0.638c-0.37,0.112-0.714,0.13-1.031,0.053
					c-0.316-0.076-0.6-0.228-0.852-0.454c-0.159-0.144-0.321-0.359-0.483-0.645c-0.008,0.271-0.036,0.475-0.082,0.612
					c-0.033,0.092-0.117,0.238-0.252,0.437c-0.136,0.198-0.245,0.336-0.328,0.415l-1.633,1.586l-0.707-2.333l1.708-1.722
					c0.221-0.219,0.355-0.396,0.4-0.53c0.06-0.18,0.061-0.364,0.002-0.553l-0.055-0.183l-2.711,0.822L796.128,266.302z
					 M800.729,267.171l0.264,0.87c0.028,0.095,0.114,0.268,0.256,0.52c0.069,0.128,0.173,0.219,0.312,0.271
					c0.139,0.053,0.281,0.057,0.428,0.012c0.215-0.064,0.36-0.184,0.435-0.355c0.073-0.172,0.054-0.446-0.061-0.823l-0.274-0.907
					L800.729,267.171z"/>
				<path fill="#FFFFFF" d="M804.848,271.007l0.95,2.673l-3.635,2.453l4.364-0.399l0.95,2.672l-6.577,2.338l-0.591-1.664
					l5.015-1.784l-5.471,0.502l-0.536-1.507l4.561-3.063l-5.016,1.783l-0.592-1.664L804.848,271.007z"/>
				<path fill="#FFFFFF" d="M804.112,285.537l-0.936-2.264l-1.193,0.125l-0.842-2.035l7.453-0.241l0.898,2.174l-5.448,5.091
					l-0.864-2.087L804.112,285.537z M805.337,284.546l2.024-1.67l-2.609,0.255L805.337,284.546z"/>
				<path fill="#FFFFFF" d="M808.089,291.039l1.313-0.62l1.425,3.013l-2.69,1.271c-0.665-0.391-1.175-0.774-1.526-1.149
					c-0.351-0.376-0.671-0.869-0.959-1.477c-0.354-0.749-0.516-1.42-0.484-2.013c0.032-0.594,0.24-1.139,0.623-1.637
					c0.382-0.5,0.9-0.902,1.553-1.213c0.689-0.326,1.356-0.468,1.999-0.423c0.644,0.042,1.228,0.275,1.751,0.699
					c0.406,0.33,0.78,0.857,1.122,1.581c0.33,0.697,0.514,1.248,0.552,1.653c0.036,0.406-0.023,0.785-0.181,1.14
					c-0.157,0.354-0.413,0.684-0.766,0.991l-1.226-1.722c0.201-0.19,0.322-0.408,0.359-0.653c0.04-0.245-0.009-0.511-0.145-0.797
					c-0.203-0.428-0.513-0.698-0.93-0.812c-0.416-0.113-0.947-0.019-1.59,0.285c-0.683,0.323-1.109,0.683-1.28,1.077
					c-0.172,0.396-0.148,0.823,0.068,1.283c0.104,0.217,0.232,0.41,0.39,0.578c0.157,0.169,0.372,0.344,0.645,0.527l0.594-0.28
					L808.089,291.039z"/>
				<path fill="#FFFFFF" d="M810.809,294.501c0.999-0.547,1.931-0.692,2.792-0.439c0.861,0.254,1.563,0.878,2.106,1.872
					c0.556,1.021,0.711,1.955,0.464,2.807c-0.247,0.85-0.862,1.544-1.85,2.082c-0.716,0.392-1.368,0.59-1.958,0.6
					c-0.59,0.009-1.138-0.145-1.641-0.461c-0.503-0.317-0.94-0.814-1.312-1.495c-0.376-0.69-0.579-1.322-0.605-1.896
					c-0.027-0.572,0.121-1.131,0.444-1.672C809.572,295.357,810.092,294.891,810.809,294.501z M811.833,296.399
					c-0.618,0.337-1.001,0.693-1.145,1.071c-0.146,0.378-0.11,0.765,0.106,1.16c0.221,0.406,0.524,0.649,0.911,0.728
					c0.387,0.079,0.923-0.069,1.607-0.442c0.577-0.314,0.936-0.662,1.075-1.04c0.14-0.377,0.1-0.766-0.118-1.164
					c-0.208-0.382-0.51-0.615-0.907-0.698C812.968,295.93,812.456,296.058,811.833,296.399z"/>
				<path fill="#FFFFFF" d="M811.905,303.676l5.913-3.71l1.91,3.045c0.354,0.564,0.576,1.025,0.667,1.385s0.063,0.712-0.085,1.062
					c-0.148,0.347-0.41,0.638-0.786,0.874c-0.328,0.206-0.654,0.313-0.981,0.323c-0.325,0.009-0.639-0.063-0.94-0.215
					c-0.192-0.096-0.404-0.262-0.636-0.494c0.063,0.263,0.09,0.468,0.08,0.612c-0.007,0.098-0.049,0.26-0.128,0.487
					c-0.078,0.228-0.147,0.39-0.206,0.487l-1.158,1.959l-1.296-2.063l1.194-2.11c0.156-0.271,0.238-0.477,0.248-0.617
					c0.009-0.189-0.039-0.367-0.144-0.534l-0.102-0.161l-2.399,1.505L811.905,303.676z M816.573,303.304l0.483,0.771
					c0.053,0.083,0.18,0.228,0.385,0.434c0.101,0.105,0.224,0.165,0.371,0.18c0.147,0.014,0.286-0.02,0.415-0.101
					c0.19-0.12,0.299-0.272,0.326-0.457c0.025-0.186-0.065-0.445-0.275-0.779l-0.503-0.802L816.573,303.304z"/>
				<path fill="#FFFFFF" d="M819.503,313.007l-1.433-1.985l-1.134,0.399l-1.289-1.785l7.196-1.96l1.377,1.907l-4.124,6.214
					l-1.322-1.832L819.503,313.007z M820.466,311.761l1.583-2.095l-2.479,0.852L820.466,311.761z"/>
				<path fill="#FFFFFF" d="M822.193,314.704l1.413,1.495c-0.228,0.247-0.365,0.479-0.411,0.696
					c-0.076,0.352,0.02,0.686,0.283,1.002c0.197,0.238,0.403,0.373,0.622,0.409c0.218,0.036,0.399-0.008,0.545-0.13
					c0.14-0.115,0.213-0.28,0.222-0.494c0.008-0.213-0.124-0.581-0.396-1.106c-0.441-0.864-0.655-1.563-0.644-2.098
					c0.012-0.538,0.226-0.981,0.646-1.33c0.275-0.229,0.602-0.366,0.979-0.411c0.379-0.044,0.771,0.034,1.179,0.238
					c0.407,0.205,0.844,0.586,1.31,1.145c0.571,0.686,0.878,1.313,0.923,1.887c0.045,0.572-0.183,1.124-0.682,1.655l-1.393-1.486
					c0.208-0.242,0.311-0.477,0.309-0.7c-0.001-0.226-0.1-0.455-0.294-0.688c-0.16-0.193-0.322-0.305-0.485-0.333
					c-0.163-0.031-0.303,0.003-0.42,0.101c-0.085,0.071-0.128,0.175-0.13,0.313c-0.006,0.138,0.082,0.377,0.266,0.721
					c0.447,0.854,0.721,1.505,0.823,1.952c0.101,0.446,0.093,0.84-0.026,1.179c-0.116,0.34-0.322,0.632-0.614,0.876
					c-0.345,0.285-0.74,0.455-1.189,0.506c-0.448,0.052-0.891-0.03-1.325-0.247s-0.867-0.584-1.3-1.104
					c-0.76-0.912-1.11-1.69-1.052-2.335C821.411,315.772,821.691,315.202,822.193,314.704z"/>
			</g>
			<g>
				<path d="M875.454,302.43l1.573-1.193c0.354,0.414,0.596,0.837,0.723,1.267c0.126,0.43,0.145,0.86,0.054,1.296
					c-0.092,0.434-0.321,0.903-0.688,1.409c-0.446,0.614-0.899,1.051-1.36,1.311c-0.46,0.259-1.019,0.367-1.673,0.323
					s-1.333-0.32-2.032-0.829c-0.936-0.678-1.473-1.448-1.613-2.311c-0.142-0.861,0.119-1.747,0.778-2.655
					c0.519-0.712,1.068-1.166,1.65-1.364c0.583-0.198,1.245-0.18,1.984,0.055l-0.775,1.79c-0.212-0.07-0.379-0.105-0.502-0.104
					c-0.203,0.001-0.393,0.045-0.568,0.135c-0.174,0.09-0.324,0.221-0.451,0.396c-0.287,0.396-0.348,0.814-0.184,1.256
					c0.12,0.33,0.433,0.679,0.938,1.046c0.627,0.454,1.124,0.672,1.495,0.65c0.37-0.022,0.68-0.204,0.929-0.548
					c0.243-0.334,0.332-0.655,0.27-0.962C875.938,303.088,875.756,302.767,875.454,302.43z"/>
				<path d="M873.526,297.912l1.045-1.888l2.137,1.183l1.142-2.062l-2.138-1.183l1.05-1.896l6.107,3.38l-1.05,1.896l-2.47-1.367
					l-1.143,2.063l2.473,1.366l-1.045,1.888L873.526,297.912z"/>
				<path d="M884.313,289.55l-1.008,2.232l0.911,0.784l-0.906,2.007l-5.282-5.264l0.968-2.145l7.441,0.483l-0.93,2.059
					L884.313,289.55z M882.753,289.337l-2.604-0.33l1.974,1.728L882.753,289.337z"/>
				<path d="M879.763,285.503l0.809-2.105l5.253,0.336l-4.133-3.251l0.784-2.043l5.586,4.924l-0.837,2.182L879.763,285.503z"/>
				<path d="M882.604,277.99l1.803-5.493l1.417,0.465l-1.129,3.438l1.054,0.347l1.047-3.19l1.354,0.444l-1.047,3.19l1.308,0.429
					l1.16-3.538l1.502,0.492l-1.835,5.593L882.604,277.99z"/>
				<path d="M884.619,271.794l1.666-5.872l1.343,0.381l2.86,4.884l1.108-3.907l1.443,0.409l-1.809,6.371l-1.392-0.395l-2.831-4.833
					l-0.955,3.368L884.619,271.794z"/>
			</g>
			<g>
				<path d="M820.688,235.331l5.777,0.186l-0.047,1.489l-3.617-0.116l-0.036,1.109l3.356,0.107l-0.046,1.423l-3.355-0.107
					l-0.044,1.375l3.722,0.119l-0.051,1.581l-5.882-0.189L820.688,235.331z"/>
				<path d="M827.701,240.323l2.056-0.249l0.233,1.929l-2.056,0.249L827.701,240.323z"/>
				<path d="M829.561,235.127l6.369-1.559l0.408,1.674l-2.136,0.523l1.249,5.106l-2.096,0.513l-1.248-5.106l-2.138,0.523
					L829.561,235.127z"/>
			</g>
			<g>
				<path d="M855.002,237.703l1.565,1.205c-0.307,0.451-0.65,0.793-1.032,1.029c-0.382,0.235-0.793,0.366-1.236,0.392
					c-0.441,0.026-0.955-0.073-1.54-0.294c-0.71-0.269-1.251-0.591-1.621-0.968c-0.372-0.377-0.624-0.886-0.752-1.529
					c-0.13-0.643-0.041-1.369,0.265-2.179c0.411-1.08,1.012-1.801,1.807-2.163c0.794-0.362,1.716-0.344,2.768,0.055
					c0.822,0.312,1.406,0.723,1.75,1.234s0.5,1.154,0.468,1.929l-1.931-0.279c0.013-0.222,0.003-0.393-0.03-0.51
					c-0.056-0.197-0.148-0.369-0.279-0.514c-0.132-0.145-0.299-0.255-0.501-0.332c-0.457-0.173-0.877-0.122-1.261,0.153
					c-0.286,0.203-0.541,0.597-0.763,1.18c-0.274,0.724-0.353,1.261-0.234,1.613s0.376,0.603,0.773,0.753
					c0.386,0.146,0.719,0.149,0.998,0.007C854.494,238.342,854.757,238.082,855.002,237.703z"/>
				<path d="M857.825,239.401l2.029,0.415l-0.39,1.903l-2.029-0.415L857.825,239.401z"/>
				<path d="M861.189,242.077l0.553-6.958l3.583,0.284c0.665,0.053,1.168,0.15,1.511,0.292c0.342,0.141,0.608,0.375,0.799,0.701
					c0.19,0.326,0.269,0.71,0.232,1.153c-0.03,0.386-0.14,0.712-0.326,0.98c-0.186,0.266-0.43,0.476-0.732,0.627
					c-0.192,0.097-0.451,0.168-0.776,0.215c0.248,0.106,0.429,0.206,0.539,0.301c0.073,0.063,0.178,0.194,0.314,0.393
					c0.136,0.199,0.225,0.351,0.266,0.456l0.882,2.099l-2.43-0.192l-0.98-2.218c-0.124-0.287-0.239-0.476-0.347-0.567
					c-0.146-0.12-0.317-0.188-0.514-0.204l-0.189-0.015l-0.225,2.825L861.189,242.077z M863.678,238.109l0.907,0.072
					c0.097,0.008,0.29-0.009,0.576-0.05c0.145-0.018,0.267-0.081,0.366-0.191c0.1-0.109,0.155-0.24,0.167-0.393
					c0.019-0.224-0.039-0.402-0.173-0.535c-0.133-0.131-0.396-0.212-0.787-0.244l-0.944-0.075L863.678,238.109z"/>
			</g>
			<g>
				<path d="M843.998,234.493h2.071v1.943h-2.071V234.493z"/>
			</g>
		</g>
	</g>
</g>
</svg>
