<?xml version="1.0" encoding="utf-8"?>
<!-- Generator: Adobe Illustrator 16.0.0, SVG Export Plug-In . SVG Version: 6.00 Build 0)  -->
<!DOCTYPE svg PUBLIC "-//W3C//DTD SVG 1.1//EN" "http://www.w3.org/Graphics/SVG/1.1/DTD/svg11.dtd">
<svg version="1.1" xmlns="http://www.w3.org/2000/svg" xmlns:xlink="http://www.w3.org/1999/xlink" x="0px" y="0px" width="550px"
	 height="550px" viewBox="0 0 550 550" enable-background="new 0 0 550 550" xml:space="preserve">
<g id="Capa_3">
	<g>
		<path fill="#DDDDDD" d="M173.989,351.659c-21.654-34.334-39.283-72.367-52.398-113.044
			C99.6,170.412,97.814,117.375,97.753,115.267C75.891,100.103,55.655,76.08,42.525,58.59
			C29.528,41.277,20.748,26.792,19.248,24.282c0.001,3.214,0.153,23.801,3.565,55.287c3.418,31.543,10.9,80.773,27.133,136.174
			C78.602,313.538,140.628,449.68,273.345,543l0.074-80.736C234.499,431.772,201.046,394.561,173.989,351.659z"/>
		<path fill="#FDF1F7" d="M280.667,90.153c-24.706,17.611-56.762,26.542-95.279,26.543c-42.044,0.001-77.506-10.983-80.257-11.857
			c0.11,3.445,2.144,55.933,23.824,123.172c20.594,63.867,63.633,154.479,151.712,223.498
			c88.082-69.021,131.122-159.636,151.715-223.505c21.68-67.238,23.712-119.72,23.822-123.164
			c-2.752,0.874-38.22,11.856-80.258,11.857C337.433,116.698,305.376,107.767,280.667,90.153z"/>
		<path fill="#DDDDDD" d="M104.933,111.089c0.649,0.211,36.982,11.895,80.331,11.893c38.502-0.001,70.534-8.934,95.207-26.548
			l0.032-0.023h0.08l0.033,0.023c24.676,17.617,56.707,26.549,95.206,26.548c43.346-0.001,79.682-11.683,80.331-11.893
			c21.849-15.144,42.081-39.164,55.208-56.649c12.81-17.063,21.519-31.377,23.195-34.175
			c-11.368,11.518-29.004,21.336-51.076,28.414c-23.085,7.401-49.643,11.314-76.804,11.314c-26.791,0-52.863-3.701-75.397-10.701
			c-21.883-6.798-39.545-16.396-51.086-27.758c-11.541,11.362-29.203,20.96-51.086,27.758c-22.535,7-48.606,10.701-75.398,10.701
			c-27.145,0-53.582-3.887-76.454-11.241c-21.704-6.979-39.133-16.696-50.511-28.128c2.111,3.503,10.645,17.386,22.981,33.819
			C62.853,71.927,83.085,95.945,104.933,111.089z"/>
		<path fill="#DDDDDD" d="M464.333,115.267c-0.062,2.108-1.847,55.145-23.837,123.349c-13.115,40.677-30.744,78.71-52.398,113.044
			c-27.058,42.901-60.51,80.112-99.429,110.604l-0.074,80.696c132.833-93.338,194.882-229.538,223.547-327.37
			c16.232-55.401,23.714-104.631,27.132-136.174c3.36-31.011,3.559-51.455,3.564-55.133c-1.499,2.507-10.278,16.995-23.277,34.309
			C506.431,76.08,486.195,100.103,464.333,115.267z"/>
	</g>
	<g>
		<path fill="#0F70B7" d="M272.479,522.758C147.647,430.697,88.52,300.027,60.828,205.521
			c-16.109-54.98-23.534-103.833-26.925-135.134c-1.426-13.152-2.277-24.332-2.785-33.123c3.349,4.905,7.298,10.486,11.732,16.393
			c12.906,17.191,32.592,40.609,54.162,56.269c0.666,12.468,4.419,61.292,23.991,121.995
			c13.269,41.153,31.112,79.644,53.034,114.403c26.891,42.638,60.019,79.735,98.502,110.311L272.479,522.758z"/>
		<path fill="#0F67B7" d="M38.708,58.13c12.699,16.823,31.583,39.175,52.485,54.951c1.063,16.228,5.591,63.273,24.101,120.681
			c13.423,41.631,31.48,80.579,53.669,115.763c26.721,42.368,59.529,79.347,97.575,109.991l-0.047,51.194
			C149.505,420.116,93.3,295.002,66.586,203.834C50.601,149.276,43.233,100.8,39.868,69.741
			C39.428,65.684,39.043,61.808,38.708,58.13 M24.372,15.747c0.001,3.214,0.153,23.801,3.565,55.287
			c3.418,31.543,10.9,80.773,27.133,136.174c28.655,97.795,90.682,233.937,223.398,327.257l0.074-80.736
			c-38.92-30.491-72.373-67.703-99.43-110.604c-21.654-34.334-39.283-72.367-52.398-113.044
			c-21.991-68.204-23.776-121.24-23.837-123.349C81.015,91.567,60.779,67.545,47.649,50.055
			C34.652,32.742,25.872,18.256,24.372,15.747L24.372,15.747z"/>
	</g>
	<g>
		<linearGradient id="SVGID_1_" gradientUnits="userSpaceOnUse" x1="280.7715" y1="21.1309" x2="280.7715" y2="108.4468">
			<stop  offset="0.6667" style="stop-color:#FCDA17"/>
			<stop  offset="0.8183" style="stop-color:#FCD819"/>
			<stop  offset="0.8944" style="stop-color:#FBD01E"/>
			<stop  offset="0.9535" style="stop-color:#FAC327"/>
			<stop  offset="1" style="stop-color:#F9B233"/>
		</linearGradient>
		<path fill="url(#SVGID_1_)" d="M375.946,108.447c-37.223,0.001-68.081-8.556-91.72-25.432l-1.564-1.117l-1.955-0.023h-1.947
			l-1.656,1.144c-23.63,16.871-54.489,25.427-91.716,25.428c-38.728,0.001-72.07-9.641-77.658-11.345
			C86.822,82.385,67.358,59.233,54.649,42.305c-1.809-2.409-3.533-4.76-5.165-7.029c7.834,4.023,16.569,7.602,26.06,10.653
			c23.458,7.542,50.531,11.529,78.29,11.529c27.386,0,54.074-3.794,77.178-10.971c20.31-6.31,37.217-15.02,49.306-25.355
			c12.088,10.335,28.996,19.046,49.306,25.355c23.104,7.177,49.791,10.971,77.178,10.971c27.773,0,54.965-4.011,78.636-11.601
			c9.723-3.118,18.648-6.771,26.622-10.873c-1.695,2.361-3.488,4.81-5.372,7.318c-12.709,16.929-32.173,40.081-53.081,54.798
			C448.005,98.806,414.611,108.446,375.946,108.447z"/>
		<path fill="#FCCE17" d="M280.317,28.849c12.325,9.479,28.525,17.464,47.526,23.368c23.672,7.354,50.976,11.241,78.957,11.241
			c28.388,0,56.213-4.11,80.468-11.887c2.117-0.679,4.201-1.384,6.246-2.113c-11.679,14.459-26.725,30.835-42.578,42.18
			c-7.406,2.19-38.861,10.808-74.997,10.809c-35.943,0-65.628-8.181-88.227-24.315l-0.063-0.044l-0.029-0.021l-3.109-2.192h-3.805
			h-0.08l-3.933,0.023l-3.111,2.261c-22.592,16.115-52.265,24.286-88.204,24.287c-36.149,0-67.592-8.622-74.981-10.808
			C94.643,80.364,79.683,64.118,68.035,49.726c1.861,0.66,3.751,1.298,5.672,1.916c24.045,7.73,51.752,11.816,80.126,11.816
			c27.981,0,55.285-3.887,78.958-11.241C251.791,46.313,267.992,38.328,280.317,28.849 M534.681,11.73
			c-11.368,11.518-29.004,21.336-51.076,28.414c-23.085,7.401-49.643,11.314-76.804,11.314c-26.791,0-52.863-3.701-75.397-10.701
			c-21.883-6.798-39.545-16.396-51.086-27.758c-11.541,11.362-29.203,20.96-51.086,27.758c-22.535,7-48.606,10.701-75.398,10.701
			c-27.145,0-53.582-3.887-76.454-11.241c-21.704-6.979-39.133-16.696-50.511-28.128c2.111,3.503,10.645,17.386,22.981,33.819
			c13.126,17.484,33.358,41.503,55.206,56.646c0.649,0.211,36.981,11.893,80.323,11.893c0.005,0,0.003,0,0.008,0
			c38.502-0.001,70.534-8.934,95.207-26.548l0.032-0.023h0.08l0.033,0.023c24.674,17.616,56.704,26.548,95.199,26.548
			c0.003,0,0.005,0,0.007,0c43.346-0.001,79.682-11.683,80.331-11.893c21.849-15.144,42.081-39.164,55.208-56.649
			C524.295,28.842,533.004,14.528,534.681,11.73L534.681,11.73z"/>
	</g>
	<g>
		<path fill="#E30712" d="M288.79,456.639c38.483-30.575,71.616-67.677,98.507-110.313c21.921-34.758,39.764-73.249,53.034-114.404
			c19.562-60.671,23.321-109.52,23.99-121.995c21.57-15.66,41.257-39.079,54.162-56.269c4.428-5.897,8.373-11.473,11.721-16.375
			c-0.51,8.772-1.358,19.904-2.771,32.952c-3.392,31.302-10.816,80.155-26.925,135.133
			c-27.704,94.553-86.854,225.271-211.778,317.339L288.79,456.639z"/>
		<path fill="#D60712" d="M522.613,58.146c-0.333,3.621-0.713,7.44-1.146,11.441c-3.365,31.06-10.732,79.537-26.717,134.092
			c-26.725,91.207-82.952,216.362-200.01,306.967l0.047-51.122c38.049-30.646,70.861-67.628,97.584-109.999
			c22.189-35.182,40.247-74.13,53.67-115.763c18.502-57.383,23.034-104.449,24.1-120.681
			C491.037,97.311,509.915,74.967,522.613,58.146 M536.962,15.747c-1.499,2.507-10.278,16.995-23.277,34.309
			c-13.13,17.49-33.365,41.512-55.228,56.676c-0.062,2.108-1.847,55.145-23.837,123.349c-13.115,40.677-30.744,78.71-52.398,113.044
			c-27.058,42.901-60.51,80.112-99.429,110.604l-0.074,80.696c132.833-93.338,194.882-229.538,223.547-327.37
			c16.232-55.401,23.714-104.631,27.132-136.174C536.758,39.869,536.956,19.425,536.962,15.747L536.962,15.747z"/>
	</g>
	<path opacity="0.1" fill="#FFFFFF" d="M120.764,91.563c24.903,7.225,33.627,7.226,73.044,7.225
		c35.01-0.001,64.136-5.427,86.571-16.127l0.029-0.015h0.072l0.03,0.015c22.438,10.702,51.563,16.127,86.57,16.127
		c39.414-0.001,57.919-2.122,73.044-7.225c20.744-6.999,38.264-23.79,50.2-34.413c11.647-10.365,19.566-19.061,21.092-20.76
		c-10.337,6.997-26.373,12.961-46.443,17.26c-20.991,4.497-45.14,6.873-69.837,6.873c-24.361,0-48.068-2.248-68.559-6.5
		c-19.897-4.13-35.957-13.96-46.451-20.863c-10.495,6.902-26.555,16.733-46.453,20.863c-20.49,4.252-44.197,6.5-68.559,6.5
		c-24.682,0-48.721-2.361-69.519-6.829c-19.735-4.239-35.583-10.142-45.929-17.087c1.92,2.129,9.679,10.562,20.896,20.544
		C82.501,67.774,99.738,85.463,120.764,91.563z"/>
	<path opacity="0.05" fill="#FFFFFF" d="M155.309,322.234c-16.327-29.089-29.619-61.313-39.507-95.777
		c-16.581-57.786-20.423-111.34-20.469-113.126C78.85,100.484,63.628,83.877,56.189,73.931
		C45.624,59.804,39.77,46.989,38.639,44.863c0.001,2.723,0.115,20.166,2.688,46.842C43.904,118.431,52.261,161.061,64.5,208
		c21.605,82.857,91.319,220.664,208.5,316.5V462C241.333,443.998,175.709,358.583,155.309,322.234z"/>
	<path opacity="0.13" fill="#FFFFFF" d="M405.352,324.234c16.326-29.089,29.618-61.313,39.506-95.777
		c16.581-57.786,20.424-111.34,20.469-113.126c16.484-12.848,31.706-29.454,39.145-39.401c10.565-14.126,16.42-26.941,17.551-29.067
		c-0.002,2.723-0.115,20.166-2.688,46.842c-2.577,26.726-10.934,69.356-23.173,116.295c-21.605,82.857-91.319,220.664-208.5,316.5
		V464C319.326,445.998,384.951,360.583,405.352,324.234z"/>
</g>
<g id="Capa_4">
	<g>
		<path fill="none" stroke="#1D1D1B" stroke-width="2" stroke-miterlimit="10" d="M188.25,257c0,0,13-18.5,65.5-13.5"/>
		<path fill="none" stroke="#1D1D1B" stroke-width="2" stroke-miterlimit="10" d="M195.765,270.311c0,0,13-18.5,65.5-13.5"/>
		<path fill="none" stroke="#1D1D1B" stroke-width="2" stroke-miterlimit="10" d="M199.607,283.178c0,0,10.393-17.867,62.893-12.867
			"/>
		<path fill="none" stroke="#1D1D1B" stroke-width="2" stroke-miterlimit="10" d="M204.794,297.115c0,0,18.637-20.813,61.071-12.615
			"/>
		<path fill="none" stroke="#1D1D1B" stroke-width="2" stroke-miterlimit="10" d="M208.706,311.054c0,0,10.294-19.304,61.071-14.233
			"/>
		<path fill="none" stroke="#1D1D1B" stroke-width="2" stroke-miterlimit="10" d="M214.945,326.136c0,0,8.006-20.579,59.055-12.829"
			/>
		<path fill="none" stroke="#1D1D1B" stroke-width="2" stroke-miterlimit="10" d="M220.885,339.482c0,0,2.338-12.611,53.115-7.541"
			/>
	</g>
	<g>
		<polygon fill="none" stroke="#636363" stroke-width="2" stroke-miterlimit="10" points="280.469,416.5 251,249 316,249 		"/>
		<path fill="none" stroke="#808080" stroke-width="2" stroke-miterlimit="10" d="M329.75,220.952c2.615,0,8.613-5.702,8.613-9.452
			s-2.582-4.167-2.582-4.167H231.667c0,0-2.583,0.417-2.583,4.167s5.999,9.452,8.614,9.452c0,21.953,20.607,39.75,46.026,39.75
			C309.143,260.702,329.75,242.905,329.75,220.952z"/>
	</g>
	<path fill="none" stroke="#000000" stroke-width="2" stroke-miterlimit="10" d="M166.772,254.636l-2.647,1.614L210,385.001
		c16-3,30.583-4.75,39.49-4.25c7.968,0.447,30.104,5.249,30.104,5.249l2.896-122.75l-44.114-44.875
		c-53.5-1.625-70.5,22.125-70.5,22.125l45.75,129.25c0,0,28-8.5,65.969,2.75"/>
	<path fill="none" stroke="#000000" stroke-width="2" stroke-miterlimit="10" d="M169.376,244.742c0,0-2.21-0.034-2.793,2.508
		l1.417,4.333c0,0-1.454,1.515-1.638,1.885l44.722,128.157c0,0,21.369-4.231,34.542-4.375c11.5-0.125,32.5,6.25,32.5,6.25"/>
	<path fill="none" stroke="#000000" stroke-width="2" stroke-miterlimit="10" d="M167.151,248.987l45.099,125.138
		c0,0,20.875-3.5,33.875-3.25s32.625,6.75,32.625,6.75"/>
	<g>
		<path fill="none" stroke="#1D1D1B" stroke-width="2" stroke-miterlimit="10" d="M374.688,257c0,0-13-18.5-65.5-13.5"/>
		<path fill="none" stroke="#1D1D1B" stroke-width="2" stroke-miterlimit="10" d="M367.173,270.311c0,0-13-18.5-65.5-13.5"/>
		<path fill="none" stroke="#1D1D1B" stroke-width="2" stroke-miterlimit="10" d="M363.33,283.178c0,0-10.393-17.867-62.893-12.867"
			/>
		<path fill="none" stroke="#1D1D1B" stroke-width="2" stroke-miterlimit="10" d="M358.144,297.115c0,0-18.638-20.813-61.071-12.615
			"/>
		<path fill="none" stroke="#1D1D1B" stroke-width="2" stroke-miterlimit="10" d="M354.232,311.054c0,0-10.295-19.304-61.071-14.233
			"/>
		<path fill="none" stroke="#1D1D1B" stroke-width="2" stroke-miterlimit="10" d="M347.993,326.136c0,0-8.006-20.579-59.056-12.829"
			/>
		<path fill="none" stroke="#1D1D1B" stroke-width="2" stroke-miterlimit="10" d="M342.053,339.482c0,0-2.339-12.611-53.115-7.541"
			/>
	</g>
	<path fill="none" stroke="#000000" stroke-width="2" stroke-miterlimit="10" d="M396.166,254.636l2.646,1.614l-45.875,128.751
		c-16-3-30.583-4.75-39.49-4.25c-7.968,0.447-30.104,5.249-30.104,5.249l-2.896-122.75l44.114-44.875
		c53.5-1.625,70.5,22.125,70.5,22.125l-45.75,129.25c0,0-28-8.5-65.969,2.75"/>
	<path fill="none" stroke="#000000" stroke-width="2" stroke-miterlimit="10" d="M393.562,244.742c0,0,2.21-0.034,2.793,2.508
		l-1.417,4.333c0,0,1.454,1.515,1.639,1.885l-44.722,128.157c0,0-21.369-4.231-34.542-4.375c-11.5-0.125-32.5,6.25-32.5,6.25"/>
	<path fill="none" stroke="#000000" stroke-width="2" stroke-miterlimit="10" d="M395.786,248.987l-45.099,125.138
		c0,0-20.875-3.5-33.875-3.25s-32.625,6.75-32.625,6.75"/>
	<g>
		<g>
			<path fill="#F37700" d="M234.259,208.75c-1.936-2.794-10.167-16.363-7.943-42.235c2.275,0.861,6.382,2.787,9.325,6.287
				l6.585,7.83l-4.06-9.391c-1.89-4.372-3.936-11.655-3.355-22.026c3.168,1.552,9.618,5.513,12.54,13.075l2.813-1.044
				c-0.058-0.163-5.471-15.78-0.729-34.374c3.278,3.771,10.172,11.276,14.718,13.253l1.758,0.765l0.319-1.891
				c0.038-0.226,3.792-21.998,12.521-33.417c4.194,3.333,18.733,15.925,19.753,31.019l2.997-0.13
				c-0.002-0.102-0.159-8.228-0.096-13.711c3.732,4.312,10.347,14.7,7.86,32.281l-0.117,0.828l1.061,0.882l0.612,0.019
				c1.137,0,2.662,0,5.857-14.094c3.366,5.754,9.675,18.303,6.192,26.487l-3.029,7.118l5.47-5.47
				c0.137-0.137,2.971-3.031,4.729-9.499c4.518,6.026,14.816,23.458,5.205,47.438H234.259z"/>
			<path fill="#EA5B0C" d="M279.033,107.744c5.104,4.269,17.073,15.631,17.974,28.958l5.992-0.261
				c-0.001-0.075-0.087-4.545-0.106-9.069c3.282,5.281,6.749,14.292,4.887,27.458l-0.234,1.656l1.286,1.07
				c0.553,0.459,1.259,0.713,1.989,0.713c2.146,0,3.773-0.889,6.429-11.498c3.397,6.602,6.787,15.819,4.24,21.804l-6.058,14.235
				l10.939-10.939c0.311-0.311,2.405-2.517,4.146-7.144c4.582,7.283,11.277,22.614,3.702,42.522h-99.156
				c-2.295-3.597-8.895-16.057-7.41-38.539c2.014,0.953,4.558,2.479,6.571,4.746c1.614,3.61,3.128,5.464,3.301,5.671l10.123,12.06
				l-4.979-14.938c-0.716-2.146-1.821-4.157-3.288-5.984c-1.63-3.905-3.316-10.053-3.161-18.593
				c3.155,1.901,7.512,5.415,9.731,11.158l5.624-2.09c-0.054-0.15-4.8-13.777-1.334-30.69c3.694,4.074,9.257,9.687,13.313,11.45
				l3.516,1.528l0.639-3.78C267.745,139.035,271.182,119.123,279.033,107.744 M278.5,103.5c-9.75,11.5-13.75,35.25-13.75,35.25
				c-5.75-2.5-16-15-16-15c-6.25,20.5,0,38,0,38c-4.25-11-15.284-14.75-15.284-14.75c-1.024,11.77,1.223,19.979,3.323,24.837
				c1.262,1.501,2.339,3.276,3.034,5.362c0,0-1.477-1.759-3.034-5.362C232.151,166.322,225,164.5,225,164.5
				c-3.25,31.5,8.5,45.75,8.5,45.75h102.75c13.072-31.18-7-52.25-7-52.25c-1.5,8.25-5,11.75-5,11.75c5-11.75-8.25-31-8.25-31
				c-3.287,15.56-4.846,16.519-5.18,16.519c-0.048,0-0.07-0.019-0.07-0.019c3.5-24.75-10.75-36-10.75-36c-0.25,4.5,0,17.25,0,17.25
				C298.75,118,278.5,103.5,278.5,103.5L278.5,103.5z"/>
		</g>
		<g>
			<path fill="#E30D2A" d="M245.833,214.145c-2.173-1.878-13.48-13.236-14.741-46.844c3.806,2.238,8.184,5.066,9.021,6.237
				l3.612,5.058l-0.907-6.148c-0.947-6.418-2.155-15.957-2.381-20.993c4.171,3.451,9.143,7.682,10.091,8.833l4.772,5.79l-2.18-7.18
				c-0.055-0.18-5.099-17.093-0.972-27.387c3.691,3.441,11.936,10.656,16.186,10.656h1.636l-0.142-1.63
				c-0.013-0.155-1.125-15.148,10.241-28.392c1.068,2.277,3.229,5.791,7.336,9.033c6.092,4.81,8.662,13.474,8.108,17.625
				l-1.322,9.927l4.173-9.104c0.112-0.245,1.973-4.362,2.335-8.817c3.139,5.016,7.192,14.506,4.5,27.555l-0.691,3.349l2.932-1.76
				c0.512-0.307,2.312-1.782,4.007-7.885c0.549-1.976,1.133-3.485,1.654-4.607c0.927,3.254,2.531,8.089,4.641,11.354
				c4.444,6.878,3.547,15.636-2.088,20.371l-4.221,3.547l5.436-0.919c0.854-0.145,7.782-1.862,9.058-19.448
				c5.013,9.75,14.417,33.028-0.252,48.495L245.833,214.145z"/>
			<path fill="#E62F29" d="M279.812,114.833c1.336,2.241,3.437,4.974,6.663,7.521c5.661,4.469,8.059,12.445,7.552,16.25
				l-2.645,19.854l8.346-18.208c0.193-0.423,1.056-2.372,1.722-4.964c2.375,5.158,4.323,12.872,2.279,22.774l-1.382,6.699
				l5.864-3.52c1.006-0.604,2.95-2.545,4.68-8.769c0.035-0.128,0.071-0.254,0.107-0.378c0.918,2.603,2.092,5.386,3.482,7.537
				c4.035,6.245,3.265,14.159-1.793,18.408l-8.442,7.094l10.872-1.839c1.42-0.24,7.489-2.062,9.7-15.583
				c4.709,10.792,9.743,28.943-1.823,41.678l-78.608,3.234c-2.627-2.509-12.03-13.447-13.665-42.591
				c3.006,1.854,5.598,3.635,6.171,4.38l7.224,10.114l-1.814-12.296c-0.774-5.248-1.676-12.304-2.125-17.371
				c3.547,2.981,6.568,5.625,7.193,6.384l9.529,11.561l-4.344-14.34c-0.049-0.163-4.3-14.435-1.716-24.273
				c4.596,4.133,11.342,9.478,15.494,9.478h3.272l-0.284-3.26C271.31,140.263,270.303,127.167,279.812,114.833 M280.594,109.333
				c-13.74,14.333-12.26,31.333-12.26,31.333c-4.667,0-16.648-11.667-16.648-11.667c-5.982,10.667,0,30.333,0,30.333
				c-1.648-2-12.685-11-12.685-11c-0.667,4,2.333,24.333,2.333,24.333c-1.667-2.333-11.818-8-11.818-8
				c0.848,40.667,15.818,51,15.818,51l81-3.333C347,191.375,324.625,157,324.625,157c-0.125,22-8.008,23.333-8.008,23.333
				c5.95-5,7.445-14.499,2.383-22.333c-3.262-5.047-5.333-14.333-5.333-14.333s-2,2-3.667,8s-3.333,7-3.333,7c4.333-21-8-33-8-33
				C300.667,131,297,139,297,139c0.666-5-2.333-14-8.666-19S280.594,109.333,280.594,109.333L280.594,109.333z"/>
		</g>
		<path fill="#C6C6C6" d="M283.724,260.271c12.112,0,23.129-4.103,31.303-10.771h-62.605
			C260.594,256.168,271.61,260.271,283.724,260.271z"/>
		<path fill="#F5EFEA" stroke="#EDEDED" stroke-width="0.75" stroke-miterlimit="10" d="M251.229,249l29.286,164.875L315.667,249.5
			c-8.281,6.601-19.821,9.946-31.943,9.946C271.311,259.446,259.572,255.884,251.229,249z"/>
		<path fill="#F5EFEA" stroke="#EDEDED" stroke-width="0.75" stroke-miterlimit="10" d="M329.318,220.952v-0.432h0.432
			c2.372,0,8.182-5.435,8.182-9.021c0-3.311-2.132-3.725-2.223-3.741l-104.042,0.006c-0.019,0.01-2.151,0.424-2.151,3.735
			c0,3.586,5.81,9.021,8.182,9.021h0.432v0.432c0,10.72,5.006,20.448,13.103,27.548h64.984
			C324.312,241.4,329.318,231.672,329.318,220.952z"/>
		<path fill="#878787" stroke="#C6C6C6" stroke-miterlimit="10" d="M315.667,249.5c0.402-0.328,0.16-0.659,0.549-1h-64.984
			c0.388,0.341-0.402,0.672,0,1H315.667z"/>
		<path fill="#575756" stroke="#B2B2B2" stroke-miterlimit="10" d="M280.515,413.875l-28.83-163.866
			c-0.405-0.334-0.804-0.675-1.195-1.021l29.933,170.138l35.986-169.646c-0.402,0.346-0.819,0.679-1.236,1.011L280.515,413.875z"/>
		<path fill="#575756" stroke="#B2B2B2" stroke-miterlimit="10" d="M335.781,206.902l-104.184,0.005
			c-0.029,0.005-2.946,0.522-2.946,4.593c0,3.702,5.478,9.345,8.616,9.848c0.121,10.742,5.148,20.481,13.223,27.64l-0.086-0.487
			h0.827c-8.096-7.1-13.103-16.828-13.103-27.548v-0.202l0,0c-2.373,0-8.614-5.664-8.614-9.25c0-3.311,2.132-3.725,2.151-3.735
			l104.042-0.006c0.091,0.016,2.223,0.43,2.223,3.741c0,3.586-6.241,9.452-8.613,9.452l0,0l0,0c0,10.72-5.007,20.448-13.103,27.548
			h0.401l-0.128,0.604l-0.08,0.375c8.399-7.2,13.647-17.146,13.771-28.132c3.138-0.503,8.615-6.146,8.615-9.848
			C338.795,207.43,335.88,206.912,335.781,206.902z"/>
	</g>
	<g>
		<path fill="#706F6F" d="M283.724,261.134c0,0,0.026,2.312,0.073,6.358c0.007,4.045,0.078,9.825,0.054,16.759
			c-0.007,6.934-0.062,15.022-0.165,23.688c-0.061,4.332-0.122,8.81-0.186,13.358c-0.082,4.549-0.165,9.17-0.248,13.791
			c-0.107,4.621-0.215,9.241-0.32,13.79c-0.125,4.548-0.248,9.023-0.366,13.355c-0.253,8.662-0.534,16.746-0.813,23.675
			c-0.262,6.929-0.573,12.701-0.748,16.742c-0.214,4.041-0.337,6.35-0.337,6.35s-0.027-2.312-0.074-6.358
			c-0.007-4.045-0.08-9.824-0.056-16.759c0.007-6.934,0.061-15.022,0.166-23.688c0.061-4.332,0.123-8.81,0.187-13.358
			c0.082-4.549,0.165-9.17,0.249-13.791c0.107-4.621,0.216-9.241,0.322-13.79c0.125-4.548,0.248-9.023,0.367-13.355
			c0.254-8.662,0.534-16.746,0.813-23.675c0.263-6.929,0.572-12.701,0.746-16.742C283.602,263.443,283.724,261.134,283.724,261.134z
			"/>
	</g>
	<g>
		<path fill="#706F6F" d="M271.968,258.937c0,0,0.209,2.352,0.575,6.469c0.321,4.119,0.864,9.998,1.365,17.062
			c0.256,3.532,0.534,7.358,0.828,11.404c0.291,4.047,0.62,8.313,0.876,12.731c0.55,8.834,1.137,18.257,1.724,27.681
			c0.492,9.429,0.984,18.856,1.445,27.696c0.471,8.839,0.742,17.098,1.06,24.172c0.311,7.075,0.438,12.978,0.589,17.106
			c0.104,4.132,0.165,6.492,0.165,6.492s-0.21-2.353-0.576-6.469c-0.321-4.119-0.867-9.998-1.366-17.062
			c-0.49-7.064-1.162-15.301-1.703-24.136c-0.55-8.834-1.136-18.257-1.722-27.681c-0.491-9.429-0.982-18.856-1.443-27.696
			c-0.25-4.418-0.409-8.694-0.581-12.748c-0.169-4.054-0.33-7.886-0.478-11.424c-0.309-7.075-0.439-12.978-0.59-17.106
			C272.028,261.297,271.968,258.937,271.968,258.937z"/>
	</g>
	<g>
		<path fill="#706F6F" d="M261.816,260.035c0,0,0.367,2.33,1.01,6.408c0.598,4.083,1.537,9.906,2.512,16.912
			c0.494,3.502,1.029,7.296,1.595,11.309c0.563,4.014,1.179,8.243,1.733,12.629c1.145,8.767,2.366,18.118,3.586,27.469
			c1.127,9.363,2.253,18.727,3.31,27.505c1.065,8.776,1.894,16.988,2.688,24.018c0.787,7.029,1.313,12.903,1.741,17.008
			c0.384,4.11,0.603,6.459,0.603,6.459s-0.367-2.33-1.011-6.407c-0.599-4.083-1.54-9.905-2.514-16.912
			c-0.966-7.007-2.192-15.169-3.327-23.938c-1.144-8.767-2.365-18.118-3.585-27.469c-1.126-9.363-2.252-18.727-3.308-27.505
			c-0.547-4.387-0.994-8.637-1.439-12.665c-0.443-4.028-0.861-7.837-1.248-11.353c-0.785-7.03-1.313-12.904-1.742-17.008
			C262.036,262.384,261.816,260.035,261.816,260.035z"/>
	</g>
	<g>
		<path fill="#706F6F" d="M296.024,258.808c0,0-0.167,2.366-0.459,6.507c-0.337,4.136-0.734,10.053-1.362,17.139
			c-0.308,3.543-0.641,7.381-0.993,11.441c-0.355,4.06-0.708,8.343-1.157,12.766c-0.859,8.849-1.776,18.287-2.692,27.727
			c-1.012,9.429-2.023,18.857-2.972,27.697c-0.939,8.841-1.982,17.075-2.792,24.142c-0.816,7.066-1.628,12.94-2.135,17.06
			c-0.553,4.114-0.868,6.465-0.868,6.465s0.167-2.366,0.458-6.507c0.337-4.136,0.731-10.054,1.361-17.139
			c0.637-7.084,1.281-15.359,2.15-24.207c0.86-8.849,1.777-18.287,2.694-27.726c1.013-9.43,2.024-18.858,2.974-27.698
			c0.455-4.422,0.977-8.688,1.45-12.735c0.477-4.048,0.927-7.874,1.342-11.406c0.818-7.065,1.627-12.941,2.134-17.06
			C295.709,261.159,296.024,258.808,296.024,258.808z"/>
	</g>
	<g>
		<path fill="#706F6F" d="M304.23,260.035c0,0-0.295,2.339-0.811,6.433c-0.56,4.087-1.275,9.938-2.285,16.936
			c-0.499,3.5-1.039,7.292-1.611,11.302c-0.573,4.01-1.157,8.242-1.844,12.606c-1.337,8.736-2.762,18.054-4.188,27.372
			c-1.52,9.303-3.039,18.605-4.464,27.327c-1.415,8.723-2.901,16.838-4.092,23.808c-1.197,6.968-2.325,12.754-3.054,16.813
			c-0.773,4.054-1.216,6.369-1.216,6.369s0.294-2.339,0.81-6.433c0.56-4.087,1.272-9.938,2.284-16.937
			c1.02-6.996,2.109-15.174,3.456-23.908c1.337-8.735,2.763-18.053,4.188-27.37c1.521-9.304,3.04-18.606,4.465-27.328
			c0.694-4.363,1.445-8.568,2.137-12.56c0.694-3.991,1.351-7.765,1.956-11.247c1.199-6.968,2.324-12.755,3.053-16.815
			C303.789,262.351,304.23,260.035,304.23,260.035z"/>
	</g>
	<line fill="#C6C6C6" stroke="#B2B2B2" stroke-miterlimit="10" x1="250.75" y1="248.75" x2="316.25" y2="248.75"/>
	<line fill="#C6C6C6" stroke="#B2B2B2" stroke-miterlimit="10" x1="235.632" y1="220.75" x2="331.814" y2="220.75"/>
</g>
<g id="Capa_5">
	<g>
		<path fill="#FFFFFF" d="M84.906,134.08l1.863,9.101l-10.307,2.11l2.036,9.945l10.307-2.11l1.871,9.142l-29.454,6.029l-1.872-9.142
			l11.914-2.439l-2.036-9.945l-11.914,2.439l-1.863-9.102L84.906,134.08z"/>
		<path fill="#FFFFFF" d="M91.922,167.247l6.219,24.107l-6.216,1.604l-3.893-15.092l-4.627,1.193l3.612,14l-5.938,1.531l-3.612-14
			l-5.739,1.48l4.006,15.529l-6.593,1.701l-6.332-24.544L91.922,167.247z"/>
		<path fill="#FFFFFF" d="M70.363,203.633l28.773-8.717l4.489,14.819c0.832,2.748,1.233,4.919,1.202,6.514
			c-0.031,1.595-0.55,3.03-1.556,4.307c-1.006,1.276-2.425,2.191-4.257,2.747c-1.597,0.483-3.077,0.56-4.441,0.23
			c-1.364-0.33-2.587-0.982-3.667-1.955c-0.688-0.621-1.383-1.546-2.084-2.778c-0.033,1.166-0.153,2.045-0.359,2.636
			c-0.137,0.398-0.498,1.025-1.082,1.88c-0.585,0.855-1.055,1.451-1.411,1.787l-7.033,6.831l-3.043-10.046l7.353-7.417
			c0.956-0.947,1.533-1.707,1.73-2.281c0.25-0.776,0.253-1.569,0.007-2.381l-0.238-0.785l-11.678,3.538L70.363,203.633z
			 M90.183,207.378l1.136,3.749c0.123,0.405,0.491,1.151,1.106,2.236c0.296,0.553,0.743,0.943,1.34,1.169
			c0.597,0.227,1.209,0.245,1.838,0.054c0.929-0.281,1.553-0.792,1.872-1.531s0.232-1.921-0.259-3.543l-1.184-3.906L90.183,207.378z
			"/>
		<path fill="#FFFFFF" d="M107.921,223.899l4.092,11.512l-15.657,10.567l18.803-1.72l4.09,11.505l-28.327,10.071l-2.549-7.169
			l21.603-7.681l-23.567,2.157l-2.307-6.489l19.643-13.194l-21.603,7.681l-2.549-7.169L107.921,223.899z"/>
		<path fill="#FFFFFF" d="M104.756,286.478l-4.029-9.747l-5.146,0.542l-3.624-8.767l32.101-1.041l3.871,9.365l-23.469,21.925
			l-3.716-8.991L104.756,286.478z M110.028,282.214l8.721-7.195l-11.243,1.094L110.028,282.214z"/>
		<path fill="#FFFFFF" d="M121.883,310.179l5.654-2.675l6.139,12.977l-11.586,5.481c-2.869-1.683-5.06-3.335-6.575-4.955
			c-1.515-1.619-2.893-3.739-4.132-6.359c-1.526-3.226-2.22-6.115-2.082-8.669c0.138-2.553,1.03-4.903,2.676-7.051
			c1.646-2.147,3.878-3.888,6.695-5.221c2.966-1.403,5.835-2.012,8.608-1.826s5.285,1.189,7.54,3.013
			c1.749,1.426,3.359,3.696,4.833,6.811c1.421,3.003,2.211,5.378,2.373,7.125c0.16,1.746-0.099,3.381-0.776,4.904
			c-0.679,1.523-1.778,2.947-3.299,4.271l-5.278-7.417c0.868-0.818,1.385-1.755,1.552-2.81c0.167-1.055-0.042-2.2-0.627-3.436
			c-0.871-1.842-2.205-3.007-4.001-3.495c-1.797-0.488-4.079-0.078-6.848,1.231c-2.941,1.392-4.781,2.938-5.518,4.641
			c-0.737,1.703-0.638,3.543,0.297,5.521c0.444,0.938,1.004,1.771,1.68,2.495c0.675,0.724,1.6,1.48,2.776,2.271l2.558-1.21
			L121.883,310.179z"/>
		<path fill="#FFFFFF" d="M133.593,325.086c4.309-2.35,8.318-2.979,12.028-1.889c3.709,1.091,6.733,3.779,9.071,8.063
			c2.396,4.394,3.063,8.421,2.001,12.084s-3.718,6.653-7.966,8.971c-3.085,1.683-5.897,2.543-8.438,2.582
			c-2.541,0.039-4.896-0.623-7.064-1.986c-2.169-1.363-4.052-3.51-5.649-6.438c-1.624-2.977-2.494-5.698-2.609-8.166
			c-0.116-2.468,0.522-4.867,1.913-7.199S130.509,326.769,133.593,325.086z M138.006,333.262c-2.664,1.453-4.309,2.992-4.933,4.618
			c-0.624,1.625-0.471,3.29,0.458,4.994c0.956,1.752,2.265,2.798,3.93,3.136c1.664,0.338,3.972-0.298,6.925-1.908
			c2.484-1.355,4.026-2.847,4.626-4.475c0.599-1.627,0.431-3.299-0.505-5.016c-0.897-1.645-2.2-2.646-3.907-3.008
			S140.694,331.795,138.006,333.262z"/>
		<path fill="#FFFFFF" d="M138.317,364.603l25.465-15.98l8.23,13.115c1.526,2.432,2.484,4.421,2.874,5.969
			c0.39,1.547,0.267,3.068-0.368,4.564c-0.635,1.496-1.763,2.753-3.384,3.77c-1.413,0.887-2.821,1.351-4.224,1.392
			c-1.403,0.04-2.754-0.267-4.052-0.922c-0.827-0.417-1.741-1.128-2.742-2.131c0.275,1.134,0.39,2.013,0.347,2.638
			c-0.027,0.42-0.21,1.119-0.549,2.099c-0.339,0.979-0.636,1.677-0.891,2.095l-4.988,8.441l-5.58-8.892l5.143-9.09
			c0.673-1.165,1.029-2.05,1.069-2.656c0.038-0.814-0.169-1.58-0.619-2.299l-0.436-0.694l-10.336,6.485L138.317,364.603z
			 M158.424,363.001l2.082,3.317c0.225,0.359,0.777,0.981,1.655,1.867c0.432,0.455,0.965,0.714,1.601,0.775
			c0.635,0.061,1.231-0.083,1.787-0.432c0.822-0.516,1.29-1.173,1.403-1.97c0.113-0.798-0.281-1.914-1.182-3.351l-2.169-3.456
			L158.424,363.001z"/>
		<path fill="#FFFFFF" d="M171.046,404.794l-6.174-8.551l-4.881,1.718l-5.553-7.69l30.989-8.439l5.932,8.215l-17.76,26.76
			l-5.695-7.887L171.046,404.794z M175.189,399.426l6.819-9.018l-10.684,3.665L175.189,399.426z"/>
		<path fill="#FFFFFF" d="M182.633,412.105l6.082,6.438c-0.981,1.065-1.572,2.065-1.774,2.998c-0.323,1.514,0.085,2.954,1.222,4.319
			c0.849,1.02,1.742,1.605,2.679,1.759c0.937,0.154,1.721-0.031,2.352-0.557c0.599-0.499,0.916-1.208,0.951-2.127
			c0.035-0.919-0.533-2.509-1.705-4.771c-1.903-3.717-2.827-6.729-2.772-9.033c0.046-2.316,0.973-4.227,2.78-5.731
			c1.187-0.988,2.595-1.578,4.224-1.77c1.629-0.19,3.32,0.153,5.075,1.031c1.754,0.879,3.633,2.521,5.637,4.927
			c2.458,2.952,3.784,5.66,3.977,8.124c0.192,2.464-0.787,4.841-2.937,7.13l-5.998-6.401c0.892-1.045,1.335-2.051,1.331-3.017
			c-0.004-0.967-0.426-1.954-1.266-2.962c-0.691-0.83-1.388-1.31-2.09-1.437c-0.702-0.127-1.305,0.02-1.809,0.439
			c-0.368,0.307-0.555,0.755-0.56,1.347c-0.025,0.59,0.356,1.625,1.144,3.104c1.926,3.68,3.106,6.481,3.543,8.405
			c0.436,1.923,0.4,3.616-0.107,5.079c-0.507,1.463-1.392,2.72-2.652,3.77c-1.481,1.233-3.188,1.961-5.121,2.183
			s-3.834-0.134-5.705-1.066c-1.871-0.934-3.738-2.519-5.602-4.757c-3.272-3.929-4.782-7.28-4.528-10.053
			C179.257,416.705,180.467,414.247,182.633,412.105z"/>
	</g>
	<g>
		<path d="M412.025,359.24l6.775-5.141c1.526,1.784,2.563,3.602,3.111,5.453c0.547,1.852,0.625,3.711,0.23,5.579
			c-0.394,1.868-1.383,3.892-2.965,6.071c-1.92,2.645-3.873,4.525-5.859,5.643c-1.984,1.117-4.387,1.582-7.205,1.395
			c-2.818-0.189-5.737-1.379-8.755-3.571c-4.023-2.923-6.339-6.239-6.945-9.949s0.513-7.523,3.356-11.439
			c2.226-3.063,4.596-5.022,7.107-5.876s5.361-0.773,8.546,0.238l-3.343,7.709c-0.91-0.305-1.629-0.455-2.157-0.45
			c-0.88,0.003-1.696,0.196-2.448,0.579c-0.752,0.384-1.4,0.951-1.947,1.703c-1.237,1.703-1.5,3.507-0.789,5.408
			c0.518,1.425,1.865,2.928,4.042,4.508c2.696,1.959,4.841,2.892,6.436,2.799c1.595-0.092,2.93-0.879,4.007-2.361
			c1.045-1.438,1.43-2.818,1.157-4.141C414.106,362.074,413.321,360.689,412.025,359.24z"/>
		<path d="M403.723,339.779l4.498-8.129l9.205,5.094l4.915-8.882l-9.206-5.093l4.519-8.165l26.306,14.556l-4.518,8.164
			l-10.641-5.888l-4.916,8.882l10.642,5.889l-4.498,8.129L403.723,339.779z"/>
		<path d="M450.18,303.765l-4.341,9.613l3.92,3.378l-3.903,8.645l-22.75-22.672l4.17-9.235l32.051,2.077l-4.004,8.866
			L450.18,303.765z M443.461,302.846l-11.215-1.424l8.498,7.441L443.461,302.846z"/>
		<path d="M430.579,286.331l3.483-9.064l22.623,1.443l-17.8-13.996l3.382-8.802l24.061,21.205l-3.611,9.398L430.579,286.331z"/>
		<path d="M442.822,253.975l7.762-23.655l6.1,2.001l-4.859,14.809l4.54,1.49l4.507-13.738l5.826,1.912l-4.506,13.738l5.631,1.847
			l4.999-15.238l6.47,2.122l-7.902,24.086L442.822,253.975z"/>
		<path d="M451.498,227.289l7.177-25.292l5.781,1.641l12.319,21.038l4.775-16.826l6.215,1.763l-7.787,27.442l-5.998-1.701
			l-12.191-20.818l-4.116,14.507L451.498,227.289z"/>
	</g>
	<g>
		<path d="M176.146,70.245l24.884,0.797l-0.205,6.416l-15.579-0.499l-0.153,4.775l14.451,0.463l-0.196,6.129l-14.451-0.463
			l-0.19,5.923l16.029,0.513l-0.218,6.806l-25.334-0.812L176.146,70.245z"/>
		<path d="M206.352,91.743l8.856-1.07l1.003,8.306l-8.856,1.07L206.352,91.743z"/>
		<path d="M214.357,69.364l27.43-6.712l1.765,7.211l-9.203,2.252l5.381,21.992l-9.024,2.208l-5.381-21.991l-9.203,2.252
			L214.357,69.364z"/>
	</g>
	<g>
		<path d="M323.938,80.459l6.74,5.188c-1.322,1.94-2.803,3.419-4.445,4.434s-3.417,1.577-5.323,1.688
			c-1.906,0.111-4.118-0.312-6.637-1.266c-3.056-1.159-5.383-2.549-6.983-4.172c-1.6-1.623-2.68-3.818-3.237-6.586
			c-0.559-2.769-0.177-5.897,1.146-9.385c1.763-4.65,4.356-7.755,7.776-9.314c3.421-1.56,7.394-1.481,11.919,0.234
			c3.541,1.343,6.054,3.115,7.537,5.315c1.482,2.2,2.153,4.969,2.014,8.309l-8.317-1.203c0.057-0.958,0.013-1.691-0.131-2.199
			c-0.234-0.849-0.635-1.586-1.202-2.211c-0.567-0.624-1.285-1.102-2.154-1.431c-1.969-0.747-3.778-0.527-5.427,0.658
			c-1.238,0.874-2.334,2.57-3.287,5.085c-1.182,3.115-1.519,5.431-1.011,6.944c0.508,1.514,1.618,2.596,3.331,3.246
			c1.662,0.63,3.094,0.64,4.299,0.029C321.749,83.212,322.879,82.091,323.938,80.459z"/>
		<path d="M336.096,87.771l8.74,1.787l-1.678,8.198l-8.739-1.788L336.096,87.771z"/>
		<path d="M350.584,99.298l2.379-29.971l15.436,1.226c2.862,0.228,5.03,0.647,6.504,1.257c1.474,0.611,2.621,1.617,3.442,3.02
			s1.156,3.058,1.005,4.966c-0.132,1.662-0.601,3.069-1.405,4.219c-0.805,1.149-1.857,2.05-3.158,2.701
			c-0.828,0.415-1.944,0.723-3.347,0.927c1.074,0.457,1.849,0.888,2.323,1.296c0.321,0.273,0.772,0.837,1.356,1.693
			c0.583,0.856,0.966,1.512,1.148,1.965l3.796,9.041l-10.464-0.831l-4.224-9.552c-0.532-1.235-1.03-2.049-1.492-2.443
			c-0.632-0.517-1.37-0.808-2.215-0.875l-0.817-0.065l-0.966,12.164L350.584,99.298z M361.301,82.21l3.905,0.31
			c0.422,0.034,1.251-0.037,2.485-0.214c0.623-0.074,1.148-0.348,1.577-0.821s0.669-1.037,0.722-1.691
			c0.076-0.968-0.172-1.734-0.744-2.302c-0.572-0.566-1.703-0.917-3.394-1.051l-4.067-0.322L361.301,82.21z"/>
	</g>
	<g>
		<path d="M276.543,66.633h8.921V75h-8.921V66.633z"/>
	</g>
</g>
</svg>
