<?xml version="1.0" encoding="utf-8"?>
<!-- Generator: Adobe Illustrator 16.0.0, SVG Export Plug-In . SVG Version: 6.00 Build 0)  -->
<!DOCTYPE svg PUBLIC "-//W3C//DTD SVG 1.1//EN" "http://www.w3.org/Graphics/SVG/1.1/DTD/svg11.dtd">
<svg version="1.1" xmlns="http://www.w3.org/2000/svg" xmlns:xlink="http://www.w3.org/1999/xlink" x="0px" y="0px" width="612px"
	 height="612px" viewBox="0 0 612 612" enable-background="new 0 0 612 612" xml:space="preserve">
<g id="Capa_1" display="none">
</g>
<g id="Vision">
</g>
<g id="Capa_2" display="none">
</g>
<g id="Mision">
</g>
<g id="Capa_3" display="none">
</g>
<g id="Capa_7">
</g>
<g id="Capa_4" display="none">
</g>
<g id="Objetivos">
</g>
<g id="Capa_9">
</g>
<g id="Capa_10">
</g>
<g id="Capa_11">
</g>
<g id="Capa_12">
	<g>
		<polygon fill="#BC0000" stroke="#000000" stroke-width="28.7955" stroke-miterlimit="10" points="391.547,576.367 
			304.266,489.598 216.984,576.367 216.984,360.666 391.547,360.666 		"/>
		<circle fill="#EFC516" stroke="#000000" stroke-width="28.7955" stroke-miterlimit="10" cx="306" cy="203.893" r="180.26"/>
		<circle fill="none" stroke="#C67D09" stroke-width="6.8412" stroke-miterlimit="10" cx="305.999" cy="199.792" r="144.154"/>
		<circle fill="#FFFF00" cx="306" cy="199.792" r="122.456"/>
		<polygon fill="#C67D09" points="306,133.431 327.563,177.12 375.777,184.126 340.888,218.133 349.124,266.152 306,243.48 
			262.877,266.152 271.112,218.133 236.223,184.126 284.438,177.12 		"/>
		<polygon fill="#FFFF00" points="306,151.25 322.169,184.013 358.326,189.267 332.162,214.77 338.34,250.778 306,233.777 
			273.661,250.778 279.838,214.77 253.674,189.267 289.831,184.013 		"/>
		<circle fill="none" stroke="#C67D09" stroke-width="8.5547" stroke-miterlimit="10" cx="306" cy="199.792" r="100.159"/>
	</g>
</g>
</svg>
