<?xml version="1.0" encoding="utf-8"?>
<!-- Generator: Adobe Illustrator 16.0.0, SVG Export Plug-In . SVG Version: 6.00 Build 0)  -->
<!DOCTYPE svg PUBLIC "-//W3C//DTD SVG 1.1//EN" "http://www.w3.org/Graphics/SVG/1.1/DTD/svg11.dtd">
<svg version="1.1" xmlns="http://www.w3.org/2000/svg" xmlns:xlink="http://www.w3.org/1999/xlink" x="0px" y="0px" width="612px"
	 height="612px" viewBox="0 0 612 612" enable-background="new 0 0 612 612" xml:space="preserve">
<g id="Capa_1" display="none">
</g>
<g id="Vision">
</g>
<g id="Capa_2" display="none">
</g>
<g id="Mision">
</g>
<g id="Capa_3" display="none">
</g>
<g id="Capa_7">
</g>
<g id="Capa_4" display="none">
</g>
<g id="Objetivos">
</g>
<g id="Capa_9">
</g>
<g id="Capa_10">
</g>
<g id="Capa_11">
</g>
<g id="Capa_12">
</g>
<g id="Capa_13">
	<g>
		<g>
			<path fill="#FFFC9C" d="M160.237,379.689c34.915-29.383,54.566-70.802,56.901-120.085c1.331-28.103-3.213-51.278-5.87-62.078
				h192.606c-2.787,11.628-7.974,37.716-7.1,67.92c1.496,51.671,20.385,91.193,54.705,114.67L306,600.723L160.237,379.689z"/>
			<path d="M397.633,202.524c-2.883,13.659-6.61,36.863-5.852,63.067c1.484,51.325,19.713,91.119,52.876,115.796L306,591.646
				L166.825,380.602c33.902-30.093,52.978-71.646,55.305-120.761c1.143-24.116-1.962-44.744-4.606-57.316H397.633 M410.338,192.529
				H204.73c0,0,36.825,116.186-51.146,186.147L306,609.8l152.416-231.123C371.467,324.54,410.338,192.529,410.338,192.529
				L410.338,192.529z"/>
		</g>
		<g>
			<path fill="#898537" d="M298.504,201.275l100.361,0.417c0,0-34.895,127.427,52.055,181.565L311.934,594.018"/>
		</g>
		<g>
			<rect x="175.493" y="140.866" fill="#2444FF" width="262.309" height="36.23"/>
			<path d="M432.805,145.864v26.235H180.49v-26.235H432.805 M442.799,135.869H170.496v46.225h272.303V135.869L442.799,135.869z"/>
		</g>
		<polygon points="293.507,590.854 293.507,387.42 319.789,387.42 319.789,588.891 305.975,611 		"/>
		
			<rect x="169.825" y="9.671" fill="#061F87" stroke="#000000" stroke-width="9.9945" stroke-miterlimit="10" width="272.304" height="112.352"/>
		<rect x="196.477" y="15.128" fill="#4874FF" width="102.445" height="101.193"/>
		<rect x="196.477" y="145.68" fill="#4874FF" width="102.445" height="26.236"/>
		<circle fill="#FFE0B6" stroke="#000000" stroke-width="8.4145" stroke-miterlimit="10" cx="305.975" cy="353.881" r="32.482"/>
		<g>
			<path d="M397.633,202.524c-2.883,13.659-6.61,36.863-5.852,63.067c1.484,51.325,19.713,91.119,52.876,115.796L306,591.646
				L166.825,380.602c33.902-30.093,52.978-71.646,55.305-120.761c1.143-24.116-1.962-44.744-4.606-57.316H397.633 M410.338,192.529
				H204.73c0,0,36.825,116.186-51.146,186.147L306,609.8l152.416-231.123C371.467,324.54,410.338,192.529,410.338,192.529
				L410.338,192.529z"/>
		</g>
	</g>
</g>
</svg>
